<?xml version="1.0" standalone="no"?>
<!DOCTYPE svg PUBLIC "-//W3C//DTD SVG 20010904//EN"
 "http://www.w3.org/TR/2001/REC-SVG-20010904/DTD/svg10.dtd">
<svg version="1.0" xmlns="http://www.w3.org/2000/svg"
 width="2017.000000pt" height="774.000000pt" viewBox="0 0 2017.000000 774.000000"
 preserveAspectRatio="xMidYMid meet">

<g transform="translate(0.000000,774.000000) scale(0.100000,-0.100000)"
fill="#000000" stroke="none">
<path d="M9235 7334 c-138 -222 -279 -450 -314 -507 -35 -56 -64 -108 -65
-114 -1 -7 -119 -200 -261 -430 -142 -230 -286 -463 -319 -518 -33 -55 -76
-127 -96 -160 -21 -33 -120 -195 -220 -360 -101 -165 -213 -348 -249 -407 -36
-60 -68 -108 -71 -108 -3 0 -35 48 -71 108 -36 59 -148 242 -249 407 -100 165
-200 327 -220 360 -20 33 -50 83 -65 110 -56 98 -247 400 -256 403 -5 2 -9 10
-9 17 0 7 -7 16 -16 19 -8 3 -13 9 -10 14 2 4 1 14 -5 22 -6 11 -9 6 -9 -17 0
-23 5 -33 15 -33 8 0 15 -5 15 -11 0 -6 -9 -8 -20 -4 -12 4 -20 2 -20 -6 0 -9
-3 -9 -14 0 -7 6 -21 8 -31 5 -13 -5 -14 -9 -3 -16 10 -7 10 -11 1 -14 -7 -3
-9 -13 -6 -22 6 -14 5 -15 -9 -2 -9 8 -14 18 -11 23 2 4 -2 14 -11 22 -22 22
-32 18 -11 -5 18 -20 15 -24 -17 -21 -11 2 -18 -5 -18 -16 0 -15 -2 -16 -10
-3 -8 12 -10 10 -10 -9 0 -17 4 -22 16 -17 9 3 17 6 20 6 2 0 1 7 -2 15 -4 8
-2 15 3 15 5 0 9 -11 9 -24 0 -14 -3 -23 -8 -20 -13 8 -46 -19 -42 -35 3 -9
-1 -6 -7 7 -7 12 -16 22 -21 22 -5 0 -7 -4 -4 -9 3 -5 -1 -11 -9 -15 -8 -3
-15 -11 -15 -18 0 -9 3 -8 10 2 6 9 10 10 10 3 0 -19 -20 -26 -26 -9 -7 18
-25 11 -23 -7 1 -7 1 -19 0 -27 -1 -12 -4 -12 -12 3 -5 9 -8 21 -5 25 3 5 -2
9 -10 9 -9 0 -13 -6 -9 -15 3 -10 0 -12 -10 -9 -8 4 -19 -1 -24 -11 -7 -11
-11 -12 -11 -4 0 7 -4 11 -8 8 -5 -3 -8 -21 -7 -40 1 -20 -2 -33 -7 -30 -4 3
-6 9 -3 14 3 4 -1 10 -9 13 -17 7 -68 -37 -58 -49 4 -4 1 -4 -5 0 -7 4 -13 2
-13 -4 0 -6 -6 -10 -12 -9 -27 3 -38 -2 -48 -23 -10 -22 -10 -22 4 -4 8 10 20
15 27 10 8 -5 10 -3 4 7 -7 11 -5 11 11 -1 10 -8 21 -16 23 -17 3 -2 -6 -2
-19 0 -14 2 -31 -2 -38 -10 -10 -10 -18 -11 -27 -3 -9 8 -15 8 -20 0 -3 -6
-12 -7 -18 -3 -7 4 -6 0 2 -10 7 -9 18 -14 24 -10 5 3 7 1 4 -5 -4 -5 -16 -8
-27 -5 -11 3 -28 -1 -37 -8 -9 -8 -14 -9 -10 -3 4 7 -5 9 -25 6 -20 -3 -26 -7
-17 -13 7 -4 18 -5 24 -2 5 3 -6 -10 -24 -30 -40 -42 -41 -43 -41 -21 0 8 4
13 9 10 5 -3 12 1 15 10 3 8 2 12 -4 9 -9 -6 -14 8 -11 28 1 5 -3 6 -8 2 -6
-3 -8 -12 -4 -20 4 -11 1 -13 -13 -8 -13 5 -15 3 -8 -8 15 -25 13 -39 -9 -50
-21 -10 -21 -10 -3 5 11 9 14 16 7 16 -7 0 -9 5 -6 10 3 6 2 10 -4 10 -5 0
-13 -5 -16 -10 -4 -6 -15 -8 -25 -5 -22 7 -36 -11 -21 -29 8 -10 6 -18 -9 -31
-17 -15 -20 -16 -15 -3 9 23 -10 31 -26 10 -13 -15 -12 -16 4 -3 21 17 22 1 1
-25 -8 -10 -13 -13 -9 -6 3 6 4 12 0 12 -3 0 -10 -12 -16 -27 -10 -27 -11 -27
-24 -9 -8 10 -11 24 -8 29 4 6 -8 1 -26 -12 -19 -14 -38 -20 -49 -16 -12 4
-14 3 -6 -5 6 -6 21 -12 33 -13 11 -1 21 -7 21 -15 0 -7 -4 -10 -10 -7 -5 3
-15 3 -21 -1 -8 -4 -7 -9 2 -15 11 -7 11 -9 1 -9 -7 0 -15 7 -18 15 -9 22 -23
8 -18 -18 4 -20 4 -20 -5 -2 -4 11 -7 23 -4 28 2 4 -1 7 -6 7 -9 0 -13 -17
-13 -50 0 -3 -9 -14 -20 -25 -18 -18 -19 -18 -12 -1 6 15 4 17 -16 11 -15 -5
-20 -4 -16 4 4 6 2 11 -4 11 -7 0 -9 -7 -6 -15 6 -17 -13 -55 -27 -55 -4 0 -6
4 -3 9 9 13 -16 20 -36 9 -10 -4 -15 -15 -12 -23 4 -8 9 -13 13 -11 4 3 7 -4
7 -15 0 -18 -2 -18 -12 -4 -13 18 -48 10 -40 -10 3 -8 -6 -12 -27 -11 -29 1
-37 9 -79 81 -102 176 -234 392 -455 750 -127 207 -235 385 -238 395 -4 11
-11 20 -16 20 -5 0 -8 3 -6 8 1 4 -12 30 -29 57 -17 28 -85 138 -151 245 -66
107 -139 224 -162 260 l-41 65 0 -1558 c0 -1088 3 -1564 11 -1578 8 -16 13
-18 25 -9 7 7 11 17 7 24 -3 6 -2 8 2 3 5 -4 10 -18 12 -30 2 -17 1 -19 -7 -7
-9 13 -14 7 -11 -12 2 -12 -14 -9 -27 4 -7 7 -12 8 -12 2 0 -5 5 -15 12 -22 8
-8 8 -12 1 -12 -18 0 -15 -256 3 -271 11 -9 14 -7 14 12 0 19 -2 21 -10 9 -8
-11 -10 -4 -8 27 1 23 5 40 9 37 4 -2 5 -14 2 -25 -5 -19 -3 -21 20 -15 31 7
34 0 10 -26 -9 -10 -11 -18 -6 -18 6 0 13 6 16 14 4 9 14 12 27 9 19 -5 20 -7
5 -29 -18 -28 -10 -31 19 -6 20 16 20 16 7 -1 -11 -14 -11 -21 -3 -29 9 -9 12
-8 12 5 0 9 7 17 15 17 8 0 15 -5 15 -11 0 -5 -5 -7 -11 -3 -7 4 -10 2 -8 -5
7 -19 22 -15 31 9 6 18 3 23 -22 32 -17 5 -30 15 -30 20 0 6 7 4 17 -3 9 -8
17 -13 17 -11 1 2 9 0 19 -4 10 -3 16 -13 13 -20 -3 -8 -1 -14 4 -14 6 0 10
-10 10 -22 0 -25 13 -16 17 12 2 11 -2 20 -8 20 -5 0 -9 8 -7 18 2 9 -3 16 -9
15 -7 -2 -13 2 -13 7 0 6 6 10 14 10 17 0 51 -83 43 -105 -8 -18 -1 -19 17 -2
12 10 12 15 -1 29 -10 11 -11 18 -4 23 6 3 14 -1 17 -9 7 -18 25 -22 21 -5 -1
6 4 14 12 17 9 3 11 0 6 -8 -5 -9 -4 -11 3 -6 7 4 12 2 12 -4 0 -6 5 -8 10 -5
6 3 10 1 10 -4 0 -6 10 -11 23 -12 12 0 16 -3 10 -6 -7 -2 -13 -10 -13 -16 0
-17 23 9 26 29 2 9 -4 23 -12 31 -8 8 -14 11 -14 6 0 -5 5 -14 12 -21 9 -9 8
-12 -4 -12 -22 0 -43 26 -26 34 7 3 4 4 -6 3 -10 -1 -21 5 -24 13 -3 8 -1 12
3 8 4 -4 14 0 22 10 12 16 14 16 26 0 8 -10 18 -14 22 -10 5 4 5 -1 2 -11 -6
-16 -4 -16 23 -2 17 9 30 22 30 29 0 8 7 16 15 20 8 3 14 0 12 -6 -3 -16 -35
-48 -48 -48 -5 0 -8 -4 -5 -9 4 -5 0 -11 -6 -14 -11 -3 -11 -9 0 -26 10 -18
10 -21 -5 -22 -13 0 -12 -3 6 -10 13 -5 26 -7 29 -4 3 3 0 5 -7 5 -7 0 -10 4
-6 9 3 5 1 12 -5 16 -5 3 -10 11 -10 17 0 7 5 7 14 -1 11 -9 15 -8 20 4 4 11
2 14 -7 10 -6 -4 -2 2 10 13 12 11 19 23 15 27 -4 5 -2 5 5 2 6 -4 14 -1 16 5
4 10 6 10 6 1 1 -7 6 -13 12 -13 5 0 7 5 3 12 -4 7 -3 8 5 4 6 -4 19 -2 27 5
18 15 25 9 18 -18 -6 -22 -34 -41 -34 -23 0 6 5 10 10 10 6 0 10 4 10 9 0 5
-11 4 -24 -2 -14 -7 -20 -15 -14 -18 6 -4 8 -11 4 -17 -3 -5 5 -9 19 -9 13 -1
23 5 22 11 -1 6 9 10 24 8 26 -3 48 21 30 33 -5 3 -11 -2 -15 -10 -7 -20 -26
-19 -26 1 0 8 4 13 9 10 5 -3 14 1 21 9 9 11 16 12 25 5 16 -13 49 16 39 32
-5 7 -12 4 -20 -7 -8 -10 -17 -15 -21 -11 -4 4 0 12 10 17 9 6 15 14 12 19 -3
5 0 12 6 16 8 5 9 3 4 -6 -5 -9 -2 -10 14 -5 13 4 21 2 21 -5 0 -6 -4 -8 -10
-5 -6 4 -8 -6 -6 -24 2 -17 0 -29 -4 -26 -12 7 -52 -26 -46 -40 2 -7 -2 -21
-9 -32 -8 -10 -15 -13 -15 -7 0 7 -6 14 -14 17 -9 4 -13 0 -12 -11 3 -20 25
-23 45 -8 12 9 13 7 9 -12 -4 -13 -2 -20 4 -16 5 4 8 17 5 30 -2 13 0 24 4 24
5 0 6 7 3 15 -9 22 24 31 44 12 14 -15 13 -17 -11 -26 -15 -6 -27 -15 -27 -21
0 -6 14 -2 30 10 17 12 30 16 30 10 0 -6 5 -8 11 -5 6 5 4 12 -8 20 -17 13
-16 14 6 8 16 -4 22 -3 17 5 -3 6 -2 13 4 17 6 4 13 -7 16 -24 4 -17 13 -31
20 -31 8 0 14 -4 14 -10 0 -5 -3 -9 -8 -9 -16 3 -32 -1 -32 -9 0 -13 40 -12
42 1 0 7 2 17 3 22 2 6 3 17 4 25 1 13 2 13 11 0 8 -13 10 -12 10 3 0 21 -18
23 -26 2 -4 -8 -11 -15 -17 -15 -6 0 -7 3 -4 7 4 3 1 13 -6 21 -9 12 -9 16 1
19 6 3 10 9 6 14 -3 5 0 8 7 7 7 -2 18 7 24 20 17 33 25 38 20 13 -3 -18 0
-20 23 -16 15 3 22 3 15 -1 -7 -3 -10 -11 -7 -19 4 -10 11 -10 35 2 26 13 28
17 17 31 -11 15 -11 15 3 4 20 -15 14 -53 -7 -45 -23 8 -37 -7 -22 -25 10 -12
10 -14 1 -8 -7 4 -13 3 -13 -2 0 -6 7 -12 15 -16 10 -4 15 1 15 16 0 12 3 18
7 15 3 -4 13 -1 21 6 13 10 14 9 7 -2 -5 -10 -4 -12 3 -7 7 4 12 18 12 32 0
15 4 23 10 19 6 -4 8 -11 5 -16 -4 -5 1 -9 9 -9 19 0 21 -11 4 -28 -8 -8 -9
-12 -1 -12 6 0 14 6 17 13 3 6 4 3 3 -8 -5 -31 21 -75 43 -75 22 0 27 -16 8
-23 -8 -3 -6 -6 5 -6 9 -1 17 5 17 13 0 8 8 17 18 20 18 6 27 36 10 36 -4 0
-8 -7 -8 -15 0 -21 -56 -20 -64 1 -10 26 -7 34 10 27 11 -4 12 -8 4 -13 -8 -5
-7 -9 4 -13 23 -9 20 15 -4 36 -11 9 -18 22 -16 29 1 7 1 10 -1 6 -8 -13 -18
-9 -31 12 -12 19 -10 20 18 15 16 -3 30 -1 30 4 0 6 -9 8 -20 6 -25 -5 -26 17
-2 36 15 13 16 12 3 -3 -12 -16 -11 -18 2 -18 8 0 18 6 20 13 3 6 4 -12 1 -40
-2 -29 0 -53 5 -53 5 0 7 10 3 22 -3 14 -1 19 6 14 8 -4 10 -2 6 7 -3 8 0 18
6 22 9 6 9 10 -1 16 -10 6 -10 9 -2 9 16 0 26 -17 13 -25 -17 -10 -11 -25 8
-18 16 7 16 6 0 -11 -22 -21 -25 -44 -4 -27 10 9 15 8 19 -3 3 -8 -2 -16 -14
-19 -10 -3 -19 -11 -19 -19 0 -8 3 -9 8 -3 4 6 18 16 31 24 22 12 26 11 42
-10 10 -13 15 -28 12 -33 -3 -5 -1 -6 5 -2 7 4 12 3 12 -3 0 -5 -4 -11 -9 -13
-5 -1 -2 -10 7 -18 14 -13 15 -12 9 4 -6 15 -3 17 22 11 25 -5 30 -2 41 25 7
16 17 30 23 30 6 0 8 3 4 6 -3 4 0 13 8 20 24 24 27 15 5 -16 -12 -16 -18 -30
-13 -30 4 0 1 -5 -7 -11 -13 -9 -13 -10 0 -6 8 2 14 10 12 17 -2 8 3 10 13 6
9 -3 19 -6 21 -6 3 0 -1 -10 -7 -22 -11 -21 -11 -22 4 -10 19 16 19 52 0 45
-7 -3 -13 0 -13 5 0 6 10 12 23 14 12 2 23 9 23 16 1 6 2 17 3 24 0 6 4 8 8 5
3 -4 17 0 30 8 13 9 23 11 23 6 0 -5 -13 -14 -30 -21 -16 -7 -27 -16 -24 -22
3 -5 0 -15 -6 -23 -10 -12 -8 -13 9 -10 15 3 21 -2 22 -16 3 -35 4 -39 13 -39
6 0 11 6 12 15 1 8 -2 15 -7 15 -22 0 -6 16 18 18 34 3 34 3 24 39 -9 31 1 63
20 63 6 0 3 -7 -5 -16 -18 -17 -13 -34 9 -34 12 0 14 25 13 139 l-2 140 -33
-37 c-34 -39 -43 -72 -19 -72 8 0 16 5 18 12 3 8 7 6 11 -5 3 -9 3 -16 -1 -16
-4 1 -9 0 -12 -1 -14 -5 -41 -8 -37 -3 3 2 1 18 -3 33 -6 21 -5 29 3 27 7 -1
11 8 10 21 -2 12 2 22 8 22 5 0 7 -5 3 -12 -4 -7 -3 -8 5 -4 6 4 9 12 6 17 -4
5 1 9 9 9 10 0 13 6 9 17 -4 10 -2 14 4 10 6 -4 13 -1 16 7 4 10 0 12 -14 9
-14 -4 -19 0 -19 13 0 16 -2 17 -10 4 -8 -11 -9 -7 -4 15 9 43 20 50 37 25 14
-21 15 -19 15 27 0 26 0 187 1 358 l1 309 113 -182 c175 -286 182 -297 179
-304 -1 -5 2 -8 7 -8 5 0 13 -9 16 -21 6 -18 173 -294 288 -474 101 -159 382
-620 487 -800 26 -44 122 -201 215 -350 225 -361 352 -568 388 -635 60 -110
123 -205 137 -205 14 0 76 93 137 205 38 70 96 165 323 530 101 162 217 351
259 420 41 69 80 128 86 132 5 4 7 8 3 8 -4 0 51 93 121 208 70 114 179 290
241 392 62 102 164 267 226 367 62 100 115 191 119 202 3 12 11 21 16 21 5 0
8 3 7 8 -3 7 4 18 180 304 l112 182 0 -2432 0 -2432 735 0 735 0 0 3121 0
3120 1063 -4 c928 -3 1072 -6 1142 -20 275 -56 506 -166 702 -335 316 -274
494 -664 494 -1082 -1 -350 -120 -672 -349 -937 -242 -280 -598 -462 -960
-492 l-97 -8 106 -2 c291 -3 718 130 1022 321 221 139 441 339 588 538 26 36
57 77 68 91 36 47 119 196 175 316 71 153 133 344 164 513 23 123 26 159 26
395 0 236 -3 272 -26 395 -31 169 -93 360 -164 513 -56 120 -139 269 -175 316
-11 14 -42 55 -68 91 -229 309 -578 574 -941 714 -92 36 -128 55 -82 43 12 -3
22 -3 22 -1 0 12 -74 34 -175 54 -266 51 -230 50 -2167 50 -1557 0 -1808 2
-1815 14 -6 10 -83 -107 -258 -390z m-2590 -1264 c3 -5 1 -10 -4 -10 -6 0 -11
5 -11 10 0 6 2 10 4 10 3 0 8 -4 11 -10z m-199 -126 c-9 -6 -15 -13 -13 -15 1
-2 0 -3 -2 -1 -14 8 -6 28 11 28 17 0 17 -2 4 -12z m-90 -66 c4 -7 4 -10 -1
-6 -4 4 -15 2 -24 -5 -14 -11 -14 -10 -2 6 16 20 18 21 27 5z m-370 -197 c-8
-7 -19 -10 -25 -7 -19 12 -12 24 14 22 20 -1 22 -3 11 -15z m-16 -31 c0 -5 -5
-10 -11 -10 -5 0 -7 5 -4 10 3 6 8 10 11 10 2 0 4 -4 4 -10z m-130 -50 c0 -5
-5 -10 -11 -10 -5 0 -7 5 -4 10 3 6 8 10 11 10 2 0 4 -4 4 -10z m-1415 -1360
c-3 -5 -11 -10 -16 -10 -6 0 -7 5 -4 10 3 6 11 10 16 10 6 0 7 -4 4 -10z
m1063 -16 c0 -15 -4 -22 -10 -16 -5 5 -6 16 -2 25 9 23 12 21 12 -9z m-208 1
c0 -12 -19 -12 -23 0 -4 9 -1 12 9 8 7 -3 14 -7 14 -8z m473 -2 c-3 -7 -6 -13
-8 -13 -2 0 -5 6 -8 13 -3 8 1 14 8 14 7 0 11 -6 8 -14z m-760 -7 c3 -8 0 -17
-7 -19 -10 -4 -12 1 -9 14 6 23 9 24 16 5z m-626 -34 c1 -33 0 -34 -8 -13 -8
21 -6 51 3 51 2 0 4 -17 5 -38z m107 -3 c-3 -6 0 -16 6 -24 7 -8 9 -15 5 -15
-4 0 -2 -6 4 -14 7 -8 8 -17 3 -20 -6 -3 -16 2 -23 11 -12 14 -12 16 1 8 8 -4
12 -4 7 0 -4 5 -17 9 -29 10 -19 2 -19 1 -4 -11 9 -6 18 -21 19 -32 1 -17 4
-19 16 -9 12 10 14 9 8 -5 -3 -10 -2 -20 3 -23 6 -4 10 -11 10 -17 0 -6 -9 -3
-20 7 -11 10 -33 18 -50 17 -35 -1 -43 8 -24 26 8 7 14 9 14 3 0 -5 7 -11 15
-15 9 -3 15 0 15 10 0 8 -4 13 -9 10 -7 -5 -19 20 -19 41 0 3 -6 10 -14 14 -8
6 3 7 27 3 34 -5 37 -4 26 9 -7 9 -19 13 -27 10 -8 -3 -14 0 -14 7 0 6 5 8 10
5 6 -3 10 -1 10 4 0 6 -7 11 -16 11 -8 0 -13 4 -10 9 4 5 19 3 36 -6 17 -8 28
-19 24 -24z m566 31 c0 8 2 11 5 8 7 -7 -5 -38 -15 -38 -4 0 -10 9 -13 21 -4
16 -3 18 9 8 11 -9 14 -9 14 1z m377 -12 c2 -17 0 -19 -7 -8 -5 8 -6 18 -4 22
8 12 10 10 11 -14z m-832 -60 c0 -15 -5 -30 -12 -32 -7 -3 -10 1 -6 10 4 10 0
12 -11 8 -9 -3 -16 -12 -16 -20 0 -8 -5 -14 -11 -14 -5 0 -8 -4 -5 -8 3 -5 -1
-9 -9 -9 -8 0 -12 8 -9 20 4 24 14 35 14 16 0 -7 8 -2 17 11 10 14 17 28 16
32 -2 4 4 5 12 2 19 -8 19 3 0 22 -8 9 -15 21 -15 27 0 6 8 0 17 -13 10 -14
18 -37 18 -52z m35 66 c0 -8 -19 -13 -24 -6 -3 5 1 9 9 9 8 0 15 -2 15 -3z
m35 -5 c-4 -6 2 -13 14 -16 11 -3 18 -9 15 -14 -3 -5 6 -9 20 -9 14 0 28 5 31
10 4 6 10 8 15 5 5 -3 11 -1 15 5 4 6 11 8 16 4 16 -9 0 -24 -27 -24 -13 0
-24 -5 -24 -11 0 -6 7 -9 15 -6 21 9 28 -9 7 -19 -9 -4 -21 -8 -27 -9 -5 0
-16 -4 -23 -9 -7 -4 -12 -4 -11 1 4 14 -18 58 -35 72 -14 12 -14 31 0 31 3 0
2 -5 -1 -11z m512 -14 c-9 -7 -13 -16 -9 -21 4 -4 -1 -2 -10 5 -10 7 -18 19
-18 25 0 6 5 4 10 -4 9 -13 14 -7 11 12 0 4 7 4 16 1 15 -6 15 -7 0 -18z m171
7 c2 -7 -1 -12 -8 -12 -6 0 -9 4 -6 9 4 5 1 12 -4 14 -6 3 -5 4 2 3 6 -1 14
-8 16 -14z m168 -7 c-17 -16 -24 -30 -19 -38 5 -9 8 -7 11 6 4 19 11 21 32 7
13 -8 12 -10 -2 -10 -10 0 -18 -5 -18 -11 0 -5 5 -7 10 -4 6 3 10 2 10 -4 0
-5 12 -16 27 -23 14 -7 28 -19 29 -26 1 -7 0 -8 -3 -2 -9 19 -24 10 -19 -12 3
-13 3 -17 0 -10 -5 10 -9 10 -20 1 -10 -8 -14 -8 -14 0 0 6 5 11 10 11 6 0 10
7 10 16 0 9 -5 12 -12 8 -7 -4 -8 -3 -4 5 11 17 -24 27 -36 10 -8 -11 -9 -10
-4 4 3 11 0 20 -10 24 -8 3 -13 12 -9 20 3 11 1 13 -10 9 -8 -3 -15 -1 -15 4
0 6 8 10 18 10 9 0 26 7 36 15 31 23 32 18 2 -10z m-617 -8 c0 -9 -2 -8 -6 1
-7 18 -23 4 -17 -16 5 -14 4 -14 -4 -2 -8 10 -8 18 0 27 12 14 28 8 27 -10z
m376 14 c3 -5 1 -12 -5 -16 -5 -3 -10 1 -10 9 0 18 6 21 15 7z m300 0 c3 -5 0
-13 -6 -17 -7 -4 -9 -3 -5 4 3 5 0 13 -6 15 -9 4 -10 6 -1 6 6 1 14 -3 18 -8z
m79 1 c2 -4 -4 -8 -15 -8 -10 0 -19 4 -19 8 0 4 6 8 14 8 8 0 17 -4 20 -8z
m-418 -29 c4 -16 12 -31 18 -36 6 -4 -1 -5 -16 -3 -26 4 -31 0 -26 -21 0 -5
11 -7 22 -5 19 2 20 2 3 -9 -20 -12 -52 5 -41 22 3 5 3 9 0 9 -2 0 -13 3 -23
7 -15 6 -16 4 -6 -8 10 -13 10 -16 -2 -16 -8 0 -11 5 -8 10 4 7 -1 8 -13 4
-18 -7 -18 -6 -2 6 10 8 15 17 11 20 -3 4 0 7 9 7 8 0 18 -3 22 -7 3 -4 15 -7
26 -8 20 -2 23 17 7 43 -5 6 -4 12 2 12 6 0 14 -12 17 -27z m68 -6 c-3 -9 -14
-17 -23 -17 -14 1 -14 2 3 15 11 8 15 19 11 27 -6 10 -5 10 4 2 6 -6 9 -18 5
-27z m393 17 c0 -7 -4 -11 -9 -8 -4 3 -8 0 -8 -6 0 -6 -5 -8 -12 -4 -9 6 -9 9
0 12 7 2 10 7 8 11 -3 4 1 8 8 8 7 0 13 -6 13 -13z m-1167 -11 c0 9 4 17 8 17
14 0 10 -29 -5 -34 -7 -3 -18 5 -23 17 -11 21 -11 21 4 3 14 -17 16 -18 16 -3z
m105 9 c-2 -3 10 -18 28 -33 17 -16 26 -29 20 -29 -7 0 -13 5 -13 11 0 5 -5 7
-10 4 -6 -4 -7 -12 -4 -18 4 -7 4 -9 -1 -5 -4 4 -14 0 -22 -8 -8 -8 -19 -12
-24 -9 -5 4 -6 -1 -3 -9 3 -9 13 -12 22 -9 16 5 16 5 1 -8 -9 -8 -19 -21 -22
-29 -3 -9 -6 -5 -6 10 -1 18 -4 21 -10 11 -6 -9 -11 -10 -15 -2 -4 6 -12 9
-17 6 -5 -4 -9 -1 -9 5 0 6 8 10 17 8 10 -2 18 3 18 12 0 8 9 14 18 13 12 0
16 4 13 14 -3 8 -1 11 4 8 23 -14 30 8 11 34 -16 22 -17 28 -5 28 7 0 12 -2 9
-5z m195 -25 c0 -5 -4 -6 -9 -3 -5 3 -11 -1 -14 -8 -4 -10 0 -13 14 -11 11 2
17 0 14 -6 -7 -10 -55 -13 -55 -3 0 3 8 19 17 35 16 26 32 24 33 -4z m115 7
c0 -10 -7 -19 -15 -19 -8 0 -18 -4 -22 -10 -12 -16 -29 8 -18 25 5 8 10 10 10
4 0 -16 28 -13 35 4 4 10 0 12 -10 8 -10 -3 -13 -2 -10 5 10 16 30 5 30 -17z
m42 -6 c-3 -7 -5 -2 -5 12 0 14 2 19 5 13 2 -7 2 -19 0 -25z m111 20 c14 -14
16 -32 3 -24 -15 10 -21 -22 -6 -34 8 -7 13 -15 11 -19 -6 -10 21 -31 30 -23
4 4 4 1 -1 -7 -4 -8 -2 -17 6 -23 10 -7 8 -8 -8 -3 -17 4 -21 2 -19 -12 2 -10
1 -12 -1 -5 -3 6 -9 12 -14 12 -5 0 -9 8 -9 18 0 13 2 14 9 3 5 -8 11 -9 15
-3 11 19 -13 24 -36 8 -30 -21 -38 -20 -38 5 0 17 3 19 14 10 11 -9 16 -9 22
0 4 8 3 9 -4 5 -7 -4 -12 -2 -12 4 0 7 7 10 15 7 8 -4 16 -3 19 1 6 11 -18 29
-37 26 -9 -1 -17 4 -17 12 0 8 -10 14 -22 14 -17 0 -19 3 -9 9 7 5 29 7 47 5
33 -3 47 9 22 19 -7 3 -8 6 -2 6 5 1 15 -4 22 -11z m30 -19 c-3 -8 -7 -3 -11
10 -4 17 -3 21 5 13 5 -5 8 -16 6 -23z m292 5 c0 -8 -5 -12 -10 -9 -6 4 -8 11
-5 16 9 14 15 11 15 -7z m169 -20 c-14 -13 -16 -13 -16 0 0 8 4 13 9 10 4 -3
8 0 8 7 0 7 3 9 7 5 4 -3 0 -13 -8 -22z m61 16 c8 -5 11 -10 5 -10 -5 0 -3 -4
5 -10 9 -6 17 -5 23 3 6 8 7 6 3 -5 -7 -23 10 -23 18 -1 6 15 8 15 16 3 6 -8
10 -19 10 -25 0 -5 -5 -3 -10 5 -9 15 -12 11 -14 -20 -1 -10 -11 -14 -31 -13
-20 2 -26 0 -16 -6 11 -7 10 -14 -7 -38 -12 -16 -28 -30 -36 -30 -8 0 -13 4
-10 9 3 5 10 6 15 3 8 -6 13 8 10 28 0 4 2 6 7 6 19 -3 22 2 8 17 -9 8 -20 13
-24 10 -5 -3 -9 1 -9 9 0 8 5 11 11 8 6 -4 5 1 -3 10 -7 9 -18 14 -25 10 -6
-4 -5 1 3 10 14 18 36 24 26 7 -3 -5 -1 -10 4 -10 6 0 11 -9 11 -20 0 -13 5
-18 15 -14 8 4 15 10 15 16 0 5 -4 6 -10 3 -5 -3 -10 1 -10 9 0 8 -7 22 -16
30 -17 18 -7 21 16 6z m-1030 -10 c0 -5 -5 -10 -11 -10 -5 0 -7 5 -4 10 3 6 8
10 11 10 2 0 4 -4 4 -10z m695 -21 c-5 -13 -3 -19 3 -15 5 3 12 -1 16 -9 7
-18 -5 -20 -22 -3 -9 9 -12 9 -12 0 0 -6 -7 -9 -15 -6 -8 4 -15 10 -15 15 0 4
7 6 15 3 8 -4 15 -1 15 4 0 6 -6 12 -12 15 -7 2 -5 3 5 2 9 -2 17 1 17 6 0 5
3 9 6 9 3 0 2 -10 -1 -21z m135 5 c0 -8 -4 -12 -10 -9 -5 3 -10 10 -10 16 0 5
5 9 10 9 6 0 10 -7 10 -16z m-540 -31 c0 -3 -11 -3 -25 -1 -19 4 -25 1 -23
-10 2 -8 -3 -17 -11 -20 -10 -3 -12 0 -7 13 4 13 2 16 -9 11 -8 -3 -15 -1 -15
4 0 6 5 11 10 11 6 1 16 2 23 3 6 1 11 7 9 14 -1 9 6 7 23 -4 14 -9 25 -19 25
-21z m56 28 c-6 -9 37 -25 66 -24 15 0 15 -2 2 -22 -8 -12 -11 -25 -8 -28 4
-4 1 -13 -5 -21 -10 -12 -8 -16 10 -21 13 -4 24 -2 29 5 5 8 9 7 14 -6 6 -14
2 -16 -31 -11 -27 5 -42 2 -55 -10 -12 -11 -18 -12 -18 -4 0 7 -4 10 -9 6 -14
-8 -24 13 -16 33 6 15 8 14 16 -5 11 -29 20 -28 42 2 15 22 16 25 2 25 -8 0
-15 7 -15 15 0 9 6 12 15 9 8 -4 15 -2 15 3 0 18 -13 23 -27 11 -7 -6 -17 -8
-20 -4 -4 4 -1 12 7 17 13 9 13 10 -1 6 -9 -3 -22 0 -29 6 -10 9 -11 9 -6 0 4
-8 1 -13 -8 -13 -20 0 -16 23 4 32 22 10 32 9 26 -1z m49 -9 c-3 -3 -11 0 -18
7 -9 10 -8 11 6 5 10 -3 15 -9 12 -12z m739 3 c3 -8 1 -15 -4 -15 -6 0 -10 7
-10 15 0 8 2 15 4 15 2 0 6 -7 10 -15z m-924 -57 c0 -5 -4 -8 -10 -8 -5 0 -10
4 -10 10 0 5 -7 7 -15 4 -12 -5 -13 -10 -4 -20 8 -10 8 -14 0 -14 -11 0 -15
13 -12 38 1 6 -6 12 -15 12 -10 0 -14 -5 -11 -14 4 -11 1 -13 -10 -9 -11 4
-14 2 -9 -5 10 -16 -26 -16 -43 1 -10 10 -15 9 -25 -5 -17 -23 -25 -23 -19 0
5 20 40 27 59 11 8 -6 14 -7 18 0 4 5 1 13 -5 17 -7 4 -1 11 17 19 25 10 34 9
61 -9 18 -12 33 -24 33 -28z m534 36 c5 -14 4 -15 -9 -4 -17 14 -19 20 -6 20
5 0 12 -7 15 -16z m412 4 c-2 -16 -54 -68 -67 -68 -6 0 -7 5 -3 12 4 6 3 8 -4
4 -6 -3 -13 -2 -17 4 -3 6 4 10 17 10 21 0 64 20 44 20 -6 0 -1 7 10 15 23 18
23 18 20 3z m-1081 -8 c3 -6 -4 -10 -17 -10 -18 0 -20 2 -8 10 19 12 18 12 25
0z m725 0 c11 -7 11 -10 2 -10 -7 0 -11 -4 -7 -9 3 -6 14 -8 25 -6 12 2 18 0
15 -6 -8 -13 -45 -12 -45 2 0 6 -7 3 -16 -5 -8 -9 -12 -22 -8 -28 4 -7 -4 -3
-17 8 -13 12 -29 19 -36 17 -7 -2 -20 0 -30 6 -15 9 -12 10 15 9 19 -1 36 -6
38 -10 8 -13 24 -9 22 4 -2 7 3 13 10 14 26 3 27 5 12 14 -8 5 -10 10 -5 10 6
0 17 -5 25 -10z m72 -4 c7 4 8 2 4 -4 -3 -6 2 -15 11 -21 10 -6 13 -11 6 -11
-6 0 -15 5 -18 10 -4 6 -11 8 -16 5 -5 -4 -9 4 -8 17 0 13 3 17 6 10 2 -6 10
-9 15 -6z m-327 -5 c3 -5 0 -13 -6 -17 -7 -4 -9 -3 -5 4 3 5 0 13 -6 15 -9 4
-10 6 -1 6 6 1 14 -3 18 -8z m25 -10 c0 -10 -6 -21 -14 -24 -11 -4 -11 -1 -2
19 13 29 16 30 16 5z m-796 -7 c3 -8 2 -12 -4 -9 -6 3 -10 10 -10 16 0 14 7
11 14 -7z m516 1 c0 -8 5 -15 10 -15 6 0 10 -4 10 -10 0 -5 -6 -9 -12 -7 -7 1
-13 -4 -13 -10 0 -7 4 -13 9 -12 5 0 13 -5 17 -13 17 -26 8 -28 -18 -4 -23 21
-25 27 -13 41 12 14 10 15 -13 11 -29 -5 -34 3 -15 22 17 17 38 15 38 -3z m46
-2 c-3 -7 1 -10 10 -6 8 3 14 -1 14 -11 0 -25 -21 -19 -47 14 -10 13 -8 16 8
16 11 0 18 -5 15 -13z m320 -1 c-9 -14 -39 -20 -61 -11 -15 6 -11 8 18 8 21 1
37 6 37 13 0 6 3 9 6 5 3 -3 3 -10 0 -15z m-745 -29 c-12 -20 -14 -14 -5 12 4
9 9 14 11 11 3 -2 0 -13 -6 -23z m-91 2 c-9 -11 -9 -15 -1 -15 7 0 9 -5 5 -11
-4 -8 -9 -7 -15 2 -7 12 6 39 18 39 3 0 0 -7 -7 -15z m40 -23 c-5 -2 -8 -7 -6
-11 3 -4 -1 -8 -9 -8 -9 0 -11 5 -6 16 5 9 6 23 4 31 -3 9 2 7 12 -5 9 -12 12
-21 5 -23z m820 26 c0 -7 -7 -21 -15 -32 -13 -17 -14 -16 -10 10 2 16 4 30 4
32 3 9 21 0 21 -10z m297 -3 c0 -8 -7 -15 -15 -15 -12 0 -12 3 -2 15 7 8 13
15 15 15 1 0 2 -7 2 -15z m-1188 -49 c-8 -8 -10 -6 -7 9 2 16 -2 20 -22 18
l-25 -3 25 14 c23 13 26 13 33 -6 4 -13 3 -26 -4 -32z m149 28 c-7 -15 -14
-21 -16 -15 -2 7 2 18 8 26 18 22 21 18 8 -11z m129 12 c0 -8 -4 -14 -8 -13
-4 1 -14 -6 -21 -15 -10 -13 -17 -15 -28 -7 -13 9 -13 10 0 6 8 -2 23 7 33 20
22 27 24 28 24 9z m165 -5 c-1 -6 5 -14 13 -17 8 -3 12 -11 9 -16 -4 -6 -14
-1 -25 13 -15 20 -19 21 -19 7 0 -10 -3 -17 -7 -17 -5 1 -10 0 -13 -1 -3 -1
-13 -3 -23 -5 -20 -4 -43 30 -27 40 5 3 10 -1 10 -9 0 -22 31 -20 37 2 5 20
50 23 45 3z m335 -13 c-3 -7 -5 -2 -5 12 0 14 2 19 5 13 2 -7 2 -19 0 -25z
m373 22 c0 -5 -5 -10 -11 -10 -5 0 -7 5 -4 10 3 6 8 10 11 10 2 0 4 -4 4 -10z
m-822 -25 c-3 -3 -9 2 -12 12 -6 14 -5 15 5 6 7 -7 10 -15 7 -18z m717 15 c3
-6 -1 -7 -9 -4 -18 7 -21 14 -7 14 6 0 13 -4 16 -10z m232 -12 c-6 28 -3 28
23 0 22 -24 26 -38 10 -38 -5 0 -9 3 -9 8 3 19 -2 25 -11 12 -9 -13 -12 -12
-25 4 -8 11 -15 25 -15 30 1 6 8 0 16 -14 14 -24 15 -24 11 -2z m113 12 c0 -5
-5 -10 -11 -10 -5 0 -7 5 -4 10 3 6 8 10 11 10 2 0 4 -4 4 -10z m-1202 -21
c-11 -7 -10 -9 1 -9 8 0 11 -3 8 -6 -9 -9 -38 16 -32 27 3 4 13 5 21 2 13 -5
13 -7 2 -14z m572 16 c0 -2 -10 -9 -22 -15 -22 -11 -22 -10 -4 4 21 17 26 19
26 11z m180 -5 c0 -5 -5 -10 -11 -10 -5 0 -7 5 -4 10 3 6 8 10 11 10 2 0 4 -4
4 -10z m156 -32 l3 -33 -13 30 c-7 17 -11 34 -9 38 8 14 16 -1 19 -35z m-97
11 c-4 -9 -5 -20 -1 -24 4 -5 1 -5 -6 -1 -7 4 -10 12 -7 17 4 5 -4 13 -17 18
-21 9 -20 9 8 8 26 -2 30 -5 23 -18z m168 4 c0 -9 -4 -10 -14 -2 -7 6 -13 12
-13 14 0 1 6 2 13 2 8 0 14 -6 14 -14z m-320 1 c-3 -3 -12 -4 -19 -1 -8 3 -5
6 6 6 11 1 17 -2 13 -5z m283 2 c0 -3 -4 -8 -10 -11 -5 -3 -10 -1 -10 4 0 6 5
11 10 11 6 0 10 -2 10 -4z m-1100 -16 c0 -5 -5 -10 -11 -10 -5 0 -7 5 -4 10 3
6 8 10 11 10 2 0 4 -4 4 -10z m895 2 c-6 -4 -10 -22 -10 -39 1 -18 -1 -30 -4
-27 -3 3 -6 9 -6 12 0 4 -4 13 -8 20 -5 7 -4 12 2 12 6 0 10 3 10 8 -3 15 1
22 14 22 7 0 8 -3 2 -8z m-317 -33 c-3 -8 -7 -3 -11 10 -4 17 -3 21 5 13 5 -5
8 -16 6 -23z m134 13 c-7 -2 -12 -11 -12 -19 0 -9 -3 -14 -6 -10 -10 10 7 48
19 40 8 -5 8 -8 -1 -11z m-269 1 c-7 -2 -13 -9 -13 -14 0 -6 4 -8 9 -5 5 3 12
-1 15 -9 4 -13 2 -14 -14 -5 -27 15 -24 41 4 39 6 0 5 -3 -1 -6z m566 -14
c-16 -10 -23 -4 -14 10 3 6 11 8 17 5 6 -4 5 -9 -3 -15z m-659 -7 c0 -15 -2
-15 -11 -2 -8 11 -12 12 -16 2 -2 -6 -9 -10 -14 -6 -16 10 -9 20 16 22 18 1
25 -3 25 -16z m170 -4 c0 -6 -8 -4 -17 3 -15 12 -16 12 -9 -6 5 -15 4 -17 -5
-8 -6 6 -8 16 -5 22 8 12 36 3 36 -11z m30 12 c0 -5 -4 -10 -10 -10 -5 0 -10
5 -10 10 0 6 5 10 10 10 6 0 10 -4 10 -10z m73 3 c-7 -2 -19 -2 -25 0 -7 3 -2
5 12 5 14 0 19 -2 13 -5z m181 -4 c-6 -11 -41 -12 -47 -1 -3 4 8 7 24 8 15 1
26 -3 23 -7z m33 -21 c-3 -7 -5 -2 -5 12 0 14 2 19 5 13 2 -7 2 -19 0 -25z
m94 9 c-10 -9 -11 -8 -5 6 3 10 9 15 12 12 3 -3 0 -11 -7 -18z m176 -2 c0 -8
-4 -12 -9 -9 -5 3 -6 10 -3 15 9 13 12 11 12 -6z m-707 -33 c-6 -2 -7 -9 -4
-14 4 -6 2 -8 -4 -5 -5 4 -9 15 -7 25 2 9 4 19 4 22 1 3 6 -2 11 -10 6 -10 6
-16 0 -18z m-170 8 c0 -5 -7 -7 -15 -4 -8 4 -15 8 -15 10 0 2 7 4 15 4 8 0 15
-4 15 -10z m-160 -20 c0 -5 -4 -11 -10 -15 -5 -3 -6 -13 -3 -21 3 -9 -7 -4
-22 10 -25 24 -30 25 -45 11 -9 -8 -20 -15 -24 -15 -5 0 2 9 15 19 13 11 28
16 34 13 5 -4 18 -8 29 -9 16 -3 17 -1 6 12 -11 13 -10 14 4 9 9 -3 16 -10 16
-14z m297 14 c-3 -3 -12 -4 -19 -1 -8 3 -5 6 6 6 11 1 17 -2 13 -5z m333 -38
c-5 -15 -14 -25 -19 -22 -10 7 -33 -18 -26 -27 3 -4 2 -5 -2 -2 -3 3 -14 -2
-24 -11 -9 -8 -19 -12 -22 -7 -8 12 19 44 34 41 9 -2 15 8 17 26 3 20 0 26 -9
21 -8 -5 -10 -4 -5 4 9 14 26 5 26 -14 0 -8 5 -17 12 -21 8 -5 9 -2 5 9 -3 9
-2 19 4 22 5 4 6 12 3 18 -5 9 -4 9 5 1 9 -8 9 -18 1 -38z m69 37 c-3 -21 2
-33 13 -27 7 5 8 3 3 -6 -6 -10 -11 -9 -21 5 -7 10 -11 22 -8 26 6 11 14 12
13 2z m66 -22 c-6 -5 -25 10 -25 20 0 5 6 4 14 -3 8 -7 12 -15 11 -17z m35 19
c0 -5 -5 -10 -11 -10 -5 0 -7 5 -4 10 3 6 8 10 11 10 2 0 4 -4 4 -10z m85 0
c3 -5 1 -10 -4 -10 -6 0 -11 5 -11 10 0 6 2 10 4 10 3 0 8 -4 11 -10z m190 0
c-3 -5 -12 -10 -18 -10 -7 0 -6 4 3 10 19 12 23 12 15 0z m-1015 -5 c0 -2 -6
-8 -13 -14 -10 -8 -14 -7 -14 2 0 8 6 14 14 14 7 0 13 -1 13 -2z m140 -29 c0
-6 -5 -4 -10 4 -8 13 -10 12 -10 -2 0 -10 -4 -18 -8 -18 -5 0 -9 7 -9 15 0 8
4 15 9 15 5 0 6 6 2 13 -5 8 -2 8 9 -2 9 -7 17 -19 17 -25z m350 28 c0 -8 -19
-13 -24 -6 -3 5 1 9 9 9 8 0 15 -2 15 -3z m575 -14 c25 0 41 -25 23 -36 -6 -4
-8 -3 -5 3 8 12 -20 26 -34 17 -5 -3 -9 0 -9 6 0 7 -7 9 -16 6 -15 -6 -15 -4
-3 10 8 10 15 12 17 5 2 -6 14 -11 27 -11z m70 11 c-3 -5 -1 -12 5 -16 5 -3
10 -2 10 3 0 5 7 9 15 9 9 0 14 -6 11 -14 -4 -10 2 -12 22 -8 26 5 26 5 3 -5
-17 -7 -28 -7 -37 1 -11 9 -14 8 -14 -2 -1 -10 -4 -9 -11 3 -6 11 -16 15 -27
11 -13 -4 -13 -2 3 10 23 19 29 21 20 8z m-1048 -7 c-3 -3 -12 -4 -19 -1 -8 3
-5 6 6 6 11 1 17 -2 13 -5z m141 -1 c-10 -2 -18 -9 -18 -14 0 -6 -5 -7 -11 -3
-14 8 8 24 31 23 11 -1 10 -3 -2 -6z m652 1 c0 -8 -19 -13 -24 -6 -3 5 1 9 9
9 8 0 15 -2 15 -3z m94 -15 c-3 -5 -10 -7 -15 -3 -5 3 -7 10 -3 15 3 5 10 7
15 3 5 -3 7 -10 3 -15z m-924 0 c0 -4 -10 -6 -21 -4 -32 6 -34 13 -4 13 14 0
25 -4 25 -9z m228 -9 c-7 -11 -15 -15 -17 -9 -2 6 3 15 10 20 20 12 21 11 7
-11z m82 0 c-6 -11 -12 -20 -14 -20 -2 0 -2 9 1 20 3 11 9 20 15 20 5 0 4 -9
-2 -20z m20 -10 c-27 -39 -34 -39 -12 0 9 16 21 30 25 30 5 0 -1 -13 -13 -30z
m-506 8 c-5 -8 -2 -9 9 -5 17 6 24 -7 9 -17 -13 -8 -35 11 -28 23 4 6 9 11 12
11 3 0 2 -5 -2 -12z m450 -5 c4 -10 4 -14 0 -10 -4 4 -13 2 -21 -5 -7 -6 -16
-8 -20 -4 -3 3 -1 6 6 6 7 0 9 5 5 12 -4 7 -3 8 4 4 7 -4 12 -2 12 3 0 16 7
13 14 -6z m-327 1 c-3 -3 -12 -4 -19 -1 -8 3 -5 6 6 6 11 1 17 -2 13 -5z m60
-24 c4 -16 8 -18 19 -9 12 9 13 9 9 -4 -4 -8 -16 -18 -28 -21 -36 -9 -43 -6
-23 9 16 12 17 17 6 30 -9 11 -10 15 0 15 6 0 14 -9 17 -20z m108 10 c-3 -5
-2 -10 4 -10 5 0 12 6 14 13 3 6 6 3 6 -8 1 -17 3 -17 11 -5 7 10 10 11 10 2
0 -23 -31 -25 -53 -3 -19 19 -20 21 -4 21 10 0 15 -4 12 -10z m312 -5 c0 -8
-4 -12 -9 -9 -5 3 -6 10 -3 15 9 13 12 11 12 -6z m461 7 c12 10 14 10 8 1 -4
-7 -3 -13 3 -13 5 0 11 3 14 8 2 4 2 2 1 -5 -2 -7 1 -15 6 -18 6 -4 10 2 10
11 0 14 3 15 12 6 10 -10 10 -15 -2 -22 -8 -5 -18 -6 -22 -4 -4 3 -8 -1 -9 -8
0 -7 -4 -3 -9 9 -6 15 -15 20 -29 16 -12 -3 -21 -8 -21 -10 0 -3 9 -3 21 0 15
4 19 2 15 -8 -5 -14 8 -28 32 -31 6 -1 10 1 7 6 -3 4 7 10 20 13 14 2 23 2 20
-1 -2 -3 0 -11 5 -18 8 -8 6 -16 -4 -27 -8 -8 -12 -17 -9 -20 3 -4 -5 -4 -18
-2 -13 3 -25 9 -27 15 -2 6 -8 8 -13 4 -5 -3 -9 -1 -9 4 0 5 -8 18 -18 30 -15
17 -21 19 -31 9 -9 -9 -11 -7 -8 10 4 27 30 59 35 44 3 -9 8 -8 20 1z m176
-17 c-8 -13 -13 -29 -9 -35 11 -17 -7 -11 -21 8 -10 14 -15 15 -25 5 -15 -15
-33 -17 -24 -3 3 6 -2 10 -12 11 -11 0 -13 3 -5 6 6 2 10 8 8 12 -3 4 1 8 8 8
9 0 12 -7 8 -16 -5 -13 -3 -14 9 -4 12 10 18 10 27 1 9 -9 16 -7 28 10 21 30
28 28 8 -3z m64 -45 c-13 -20 -28 -27 -28 -12 0 10 22 32 32 32 5 0 3 -9 -4
-20z m-397 -13 c-10 -9 -11 -8 -5 6 3 10 9 15 12 12 3 -3 0 -11 -7 -18z"/>
<path d="M4690 4140 c0 -5 4 -10 9 -10 5 0 18 -3 28 -7 16 -6 16 -5 4 10 -15
19 -41 23 -41 7z"/>
<path d="M5670 4090 c0 -5 5 -10 11 -10 5 0 7 5 4 10 -3 6 -8 10 -11 10 -2 0
-4 -4 -4 -10z"/>
<path d="M5546 3765 c-11 -8 -15 -15 -9 -15 6 0 16 7 23 15 16 19 11 19 -14 0z"/>
<path d="M16500 6595 l0 -1094 820 -820 c451 -451 820 -825 820 -831 0 -11
-267 -279 -1238 -1244 l-402 -399 0 -1103 c0 -883 3 -1104 13 -1104 11 0 168
159 377 385 89 95 163 174 351 369 64 67 167 177 229 246 62 69 117 126 121
128 4 2 66 67 138 146 71 79 158 172 193 207 35 35 155 163 268 284 113 121
223 238 245 260 22 22 83 87 136 145 53 58 125 134 160 170 35 36 105 110 155
165 50 55 118 127 150 160 32 33 147 155 254 270 107 116 228 243 268 283 40
39 99 102 131 140 32 37 100 110 152 163 52 53 138 144 192 203 60 64 106 106
118 106 29 0 26 40 -3 41 -16 0 -53 34 -118 106 -52 57 -129 139 -170 181 -41
43 -165 174 -275 292 -110 118 -227 242 -261 275 -34 33 -85 87 -114 120 -29
33 -119 129 -199 214 -366 385 -498 524 -757 801 -39 41 -86 91 -105 110 -19
20 -128 136 -244 260 -115 124 -262 279 -325 345 -63 67 -205 217 -315 335
-110 118 -222 237 -250 266 -27 28 -149 155 -269 282 -121 128 -226 232 -233
232 -11 0 -13 -197 -13 -1095z"/>
<path d="M13755 7593 c6 -6 30 -18 55 -28 25 -9 56 -22 70 -28 14 -6 28 -11
32 -11 4 -1 15 -8 25 -16 10 -8 26 -16 36 -18 10 -2 54 -21 99 -43 80 -38 118
-48 118 -30 0 5 -12 11 -27 14 -16 3 -44 12 -63 20 -19 9 -39 15 -44 15 -5 0
-12 5 -16 12 -6 9 -76 39 -275 115 -13 5 -17 5 -10 -2z"/>
<path d="M14170 7395 c0 -2 21 -16 48 -31 26 -15 79 -52 118 -81 39 -29 76
-53 81 -53 6 0 49 -38 97 -85 47 -47 89 -85 94 -85 10 0 152 -155 152 -167 0
-4 20 -29 44 -56 24 -26 46 -54 50 -62 3 -8 10 -15 15 -15 5 0 13 -10 16 -22
4 -13 15 -32 25 -43 26 -29 116 -184 171 -297 40 -82 102 -252 141 -388 5 -19
12 -42 15 -50 4 -8 5 -19 4 -24 -1 -6 2 -19 7 -30 6 -12 18 -66 28 -121 15
-81 18 -152 18 -370 0 -247 -8 -344 -31 -405 -3 -8 -5 -28 -4 -43 2 -15 -3
-34 -9 -42 -6 -7 -10 -19 -9 -27 1 -7 0 -20 -4 -28 -5 -14 -45 -140 -81 -258
-26 -83 -183 -392 -240 -470 -230 -318 -486 -557 -761 -709 -210 -116 -374
-184 -540 -223 -27 -6 -54 -15 -60 -20 -5 -4 -59 -19 -120 -31 -108 -23 -123
-23 -843 -27 l-733 -3 53 -67 c29 -37 55 -69 58 -72 8 -6 133 -170 239 -312
l43 -58 478 0 c375 0 505 3 602 16 129 16 346 60 363 74 6 4 38 15 73 24 182
46 472 186 670 323 35 23 67 43 72 43 5 0 13 6 17 14 9 15 119 106 129 106 10
0 204 182 204 191 0 5 17 24 38 43 20 19 50 51 65 73 15 21 65 88 110 150 66
90 231 361 232 383 1 3 9 19 18 37 54 101 177 504 177 580 0 12 4 23 9 23 4 0
6 11 3 25 -2 14 1 32 8 40 6 7 11 24 9 37 -1 13 2 32 7 43 5 11 9 153 9 315 0
162 -4 304 -9 315 -5 11 -8 30 -7 43 2 13 -3 29 -9 37 -6 8 -11 24 -9 37 1 13
0 30 -3 38 -3 8 -20 78 -38 155 -35 147 -92 322 -137 415 -15 30 -27 57 -27
60 -3 23 -167 292 -228 376 -43 57 -78 108 -78 112 0 5 -31 42 -70 83 -38 41
-72 79 -74 85 -6 15 -203 194 -214 194 -4 0 -26 17 -47 38 -46 43 -120 102
-129 102 -6 0 -130 77 -179 111 -22 16 -117 43 -117 34z"/>
<path d="M6693 6155 c0 -8 6 -16 13 -19 7 -3 10 2 7 15 -6 22 -20 26 -20 4z"/>
<path d="M6505 6060 c-3 -6 1 -7 9 -4 18 7 21 14 7 14 -6 0 -13 -4 -16 -10z"/>
<path d="M6440 6016 c0 -2 9 -6 20 -9 11 -3 18 -1 14 4 -5 9 -34 13 -34 5z"/>
<path d="M6383 5988 c1 -7 -4 -12 -11 -10 -8 1 -11 -2 -7 -8 5 -8 11 -8 21 1
7 6 11 15 8 20 -8 13 -14 11 -11 -3z"/>
<path d="M6307 5909 c4 -13 8 -18 11 -10 2 7 -1 18 -6 23 -8 8 -9 4 -5 -13z"/>
<path d="M6255 5910 c3 -5 8 -10 11 -10 2 0 4 5 4 10 0 6 -5 10 -11 10 -5 0
-7 -4 -4 -10z"/>
<path d="M6271 5886 c-10 -11 -9 -14 1 -12 14 2 23 15 15 22 -2 2 -10 -2 -16
-10z"/>
<path d="M6155 5840 c-3 -5 -1 -10 4 -10 6 0 11 5 11 10 0 6 -2 10 -4 10 -3 0
-8 -4 -11 -10z"/>
<path d="M6064 5809 c-3 -6 0 -15 7 -20 22 -14 36 -10 16 5 -14 11 -15 15 -5
19 9 4 9 6 1 6 -6 1 -15 -4 -19 -10z"/>
<path d="M6015 5760 c3 -5 8 -10 11 -10 2 0 4 5 4 10 0 6 -5 10 -11 10 -5 0
-7 -4 -4 -10z"/>
<path d="M5935 5729 c-11 -16 -1 -19 13 -3 7 8 8 14 3 14 -5 0 -13 -5 -16 -11z"/>
<path d="M5795 5620 c-3 -6 1 -7 9 -4 18 7 21 14 7 14 -6 0 -13 -4 -16 -10z"/>
<path d="M5737 5579 c7 -7 15 -10 18 -7 3 3 -2 9 -12 12 -14 6 -15 5 -6 -5z"/>
<path d="M5679 5565 c-1 -3 -2 -10 -3 -15 0 -6 -8 -15 -16 -20 -9 -6 -10 -10
-3 -10 13 0 26 17 29 38 2 11 -5 18 -7 7z"/>
<path d="M5695 5530 c-3 -5 -1 -10 4 -10 6 0 11 5 11 10 0 6 -2 10 -4 10 -3 0
-8 -4 -11 -10z"/>
<path d="M5610 5500 c-9 -6 -10 -10 -3 -10 6 0 15 5 18 10 8 12 4 12 -15 0z"/>
<path d="M5626 5468 c3 -5 10 -6 15 -3 13 9 11 12 -6 12 -8 0 -12 -4 -9 -9z"/>
<path d="M5774 4157 c1 -14 8 -23 21 -25 18 -3 19 -2 2 8 -9 6 -15 15 -12 20
3 5 1 11 -3 14 -5 3 -9 -4 -8 -17z"/>
<path d="M5135 3830 c-3 -5 -3 -10 1 -10 4 0 -1 -7 -12 -15 -16 -13 -16 -14
-1 -9 9 3 24 1 32 -6 8 -7 22 -10 30 -6 13 4 13 9 3 25 -7 11 -16 17 -20 14
-5 -2 -3 -12 4 -21 12 -15 11 -16 -4 -3 -10 7 -16 17 -13 21 3 5 1 11 -4 14
-5 4 -12 2 -16 -4z"/>
<path d="M4407 3801 c-3 -14 -10 -19 -21 -15 -9 3 -16 2 -16 -4 0 -5 9 -12 20
-15 11 -3 18 -1 15 3 -3 5 3 13 12 19 13 7 15 13 7 21 -8 8 -13 6 -17 -9z"/>
<path d="M4685 3810 c-3 -5 -1 -10 4 -10 6 0 11 5 11 10 0 6 -2 10 -4 10 -3 0
-8 -4 -11 -10z"/>
<path d="M4803 3782 c-8 -5 -8 -13 1 -31 9 -16 14 -19 18 -10 8 21 -5 49 -19
41z"/>
<path d="M4985 3780 c3 -5 8 -10 11 -10 2 0 4 5 4 10 0 6 -5 10 -11 10 -5 0
-7 -4 -4 -10z"/>
<path d="M5245 3780 c-3 -5 2 -10 12 -10 15 0 16 -2 3 -10 -11 -7 -12 -12 -3
-21 8 -8 9 -18 3 -29 -8 -14 -5 -16 15 -13 22 5 44 43 24 43 -5 0 -9 -7 -9
-15 0 -8 -4 -15 -9 -15 -5 0 -8 13 -6 29 4 31 -18 61 -30 41z"/>
<path d="M5780 3783 c0 -7 5 -15 10 -18 6 -3 10 -11 10 -16 0 -6 -4 -8 -8 -5
-4 2 -14 1 -22 -5 -11 -6 -8 -9 13 -9 15 0 27 5 27 13 -1 15 -30 55 -30 40z"/>
<path d="M5165 3759 c-5 -8 -4 -10 3 -5 7 4 12 2 12 -3 0 -6 -4 -11 -10 -11
-5 0 -6 -8 -3 -17 6 -14 8 -14 16 5 12 26 -5 53 -18 31z"/>
<path d="M4340 3743 c0 -7 7 -13 15 -13 8 0 15 6 15 13 0 8 -7 14 -15 14 -8 0
-15 -6 -15 -14z"/>
<path d="M4387 3749 c7 -7 15 -10 18 -7 3 3 -2 9 -12 12 -14 6 -15 5 -6 -5z"/>
<path d="M4636 3733 c-6 -14 -5 -15 5 -6 7 7 10 15 7 18 -3 3 -9 -2 -12 -12z"/>
<path d="M4830 3728 c0 -5 4 -7 9 -4 9 6 26 -22 23 -36 -3 -13 2 -9 22 13 18
21 18 22 -3 16 -22 -5 -30 8 -8 16 6 2 0 4 -15 4 -16 0 -28 -4 -28 -9z"/>
<path d="M5056 3725 c4 -8 8 -15 10 -15 2 0 4 7 4 15 0 8 -4 15 -10 15 -5 0
-7 -7 -4 -15z"/>
<path d="M5203 3723 c1 -14 5 -19 10 -14 5 5 16 7 23 4 8 -3 14 0 14 7 0 7 -8
10 -20 7 -10 -3 -21 0 -24 7 -2 6 -3 1 -3 -11z"/>
<path d="M4480 3720 c0 -6 7 -10 15 -10 8 0 15 2 15 4 0 2 -7 6 -15 10 -8 3
-15 1 -15 -4z"/>
<path d="M5143 3715 c0 -8 4 -12 9 -9 5 3 6 10 3 15 -9 13 -12 11 -12 -6z"/>
<path d="M4980 3716 c0 -2 7 -7 16 -10 8 -3 12 -2 9 4 -6 10 -25 14 -25 6z"/>
<path d="M5770 3710 c0 -5 5 -10 11 -10 5 0 7 5 4 10 -3 6 -8 10 -11 10 -2 0
-4 -4 -4 -10z"/>
<path d="M4799 3708 c-6 -21 -5 -38 1 -38 5 0 8 9 7 20 -1 17 -5 26 -8 18z"/>
<path d="M4830 3700 c0 -5 5 -10 11 -10 5 0 7 5 4 10 -3 6 -8 10 -11 10 -2 0
-4 -4 -4 -10z"/>
<path d="M5436 3697 c3 -10 9 -15 12 -12 3 3 0 11 -7 18 -10 9 -11 8 -5 -6z"/>
<path d="M5671 3694 c0 -11 3 -14 6 -6 3 7 2 16 -1 19 -3 4 -6 -2 -5 -13z"/>
<path d="M4457 3686 c-4 -10 -1 -13 8 -9 8 3 12 9 9 14 -7 12 -11 11 -17 -5z"/>
<path d="M5310 3689 c0 -5 5 -7 10 -4 6 3 10 8 10 11 0 2 -4 4 -10 4 -5 0 -10
-5 -10 -11z"/>
<path d="M4495 3679 c-3 -4 1 -9 9 -12 8 -3 17 0 19 7 5 13 -21 18 -28 5z"/>
<path d="M4731 3674 c0 -11 3 -14 6 -6 3 7 2 16 -1 19 -3 4 -6 -2 -5 -13z"/>
<path d="M5036 3678 c3 -5 10 -6 15 -3 13 9 11 12 -6 12 -8 0 -12 -4 -9 -9z"/>
<path d="M4675 3670 c3 -5 8 -10 11 -10 2 0 4 5 4 10 0 6 -5 10 -11 10 -5 0
-7 -4 -4 -10z"/>
<path d="M5696 3658 c3 -4 11 -5 19 -1 21 7 19 12 -4 10 -11 0 -18 -5 -15 -9z"/>
<path d="M5320 3652 c0 -4 9 -8 19 -8 11 0 17 4 15 8 -3 4 -12 8 -20 8 -8 0
-14 -4 -14 -8z"/>
<path d="M5440 3406 c0 -2 7 -6 15 -10 8 -3 15 -1 15 4 0 6 -7 10 -15 10 -8 0
-15 -2 -15 -4z"/>
<path d="M4360 3392 c0 -4 9 -13 20 -19 16 -11 18 -10 14 1 -6 15 -34 30 -34
18z"/>
<path d="M5295 3340 c-3 -5 -1 -10 4 -10 6 0 11 5 11 10 0 6 -2 10 -4 10 -3 0
-8 -4 -11 -10z"/>
<path d="M5426 3338 c3 -5 10 -6 15 -3 13 9 11 12 -6 12 -8 0 -12 -4 -9 -9z"/>
<path d="M4960 3336 c0 -3 9 -10 20 -16 11 -6 20 -8 20 -6 0 3 -9 10 -20 16
-11 6 -20 8 -20 6z"/>
<path d="M4546 3311 c-4 -5 3 -7 14 -4 23 6 26 13 6 13 -8 0 -17 -4 -20 -9z"/>
<path d="M5535 2991 c-3 -5 -2 -12 3 -15 5 -3 9 1 9 9 0 17 -3 19 -12 6z"/>
<path d="M4606 2968 c3 -5 10 -6 15 -3 13 9 11 12 -6 12 -8 0 -12 -4 -9 -9z"/>
<path d="M4700 2655 c1 -5 7 -19 15 -29 12 -16 15 -17 15 -4 0 9 3 18 8 21 4
2 1 2 -7 0 -8 -2 -18 2 -23 9 -4 7 -8 9 -8 3z"/>
<path d="M4810 2653 c0 -6 8 -17 18 -24 16 -13 16 -13 2 6 -8 11 -16 22 -17
24 -2 2 -3 0 -3 -6z"/>
<path d="M4520 2641 c0 -6 4 -13 10 -16 6 -3 7 1 4 9 -7 18 -14 21 -14 7z"/>
<path d="M4344 2623 c2 -9 8 -18 15 -19 6 -1 7 0 2 2 -6 3 -7 12 -4 20 3 8 1
14 -5 14 -6 0 -9 -8 -8 -17z"/>
<path d="M4891 2635 c1 -19 18 -51 18 -35 0 8 -4 22 -9 30 -5 8 -9 11 -9 5z"/>
<path d="M4919 2621 c6 -10 7 -22 3 -26 -4 -5 -1 -5 6 -1 9 5 9 12 2 27 -6 10
-13 19 -16 19 -2 0 0 -8 5 -19z"/>
<path d="M5255 2630 c-3 -5 -1 -10 4 -10 6 0 11 5 11 10 0 6 -2 10 -4 10 -3 0
-8 -4 -11 -10z"/>
<path d="M4745 2620 c3 -5 11 -10 16 -10 6 0 7 5 4 10 -3 6 -11 10 -16 10 -6
0 -7 -4 -4 -10z"/>
<path d="M5330 2605 c0 -8 2 -15 4 -15 2 0 6 7 10 15 3 8 1 15 -4 15 -6 0 -10
-7 -10 -15z"/>
<path d="M4386 2601 c-3 -5 1 -11 9 -14 9 -4 12 -1 8 9 -6 16 -10 17 -17 5z"/>
<path d="M4990 2600 c0 -5 5 -10 11 -10 5 0 7 5 4 10 -3 6 -8 10 -11 10 -2 0
-4 -4 -4 -10z"/>
<path d="M5526 2601 c-3 -5 1 -11 9 -15 8 -3 15 -1 15 4 0 13 -18 22 -24 11z"/>
<path d="M4515 2590 c-3 -5 -1 -10 4 -10 6 0 11 5 11 10 0 6 -2 10 -4 10 -3 0
-8 -4 -11 -10z"/>
<path d="M4540 2280 c-8 -5 -10 -10 -5 -10 6 0 17 5 25 10 8 5 11 10 5 10 -5
0 -17 -5 -25 -10z"/>
<path d="M5570 2268 c0 -4 4 -8 9 -8 6 0 12 4 15 8 3 5 -1 9 -9 9 -8 0 -15 -4
-15 -9z"/>
<path d="M4795 2260 c-3 -6 1 -7 9 -4 18 7 21 14 7 14 -6 0 -13 -4 -16 -10z"/>
<path d="M5395 2260 c-3 -5 -2 -10 4 -10 5 0 13 5 16 10 3 6 2 10 -4 10 -5 0
-13 -4 -16 -10z"/>
<path d="M5660 2266 c0 -2 8 -10 18 -17 15 -13 16 -12 3 4 -13 16 -21 21 -21
13z"/>
<path d="M4586 2251 c-3 -5 1 -14 9 -21 10 -9 15 -9 15 -1 0 6 -5 11 -11 11
-5 0 -7 5 -4 10 3 6 4 10 1 10 -3 0 -7 -4 -10 -9z"/>
<path d="M5065 2240 c3 -5 8 -10 11 -10 2 0 4 5 4 10 0 6 -5 10 -11 10 -5 0
-7 -4 -4 -10z"/>
<path d="M4723 2223 c-3 -10 -8 -22 -11 -26 -2 -5 5 -3 17 5 12 7 17 14 11 16
-6 2 -8 8 -4 13 3 5 3 9 -1 9 -3 0 -8 -8 -12 -17z"/>
<path d="M5636 2223 c-6 -14 -5 -15 5 -6 7 7 10 15 7 18 -3 3 -9 -2 -12 -12z"/>
<path d="M4515 2219 c-4 -6 -5 -12 -2 -15 2 -3 7 2 10 11 7 17 1 20 -8 4z"/>
<path d="M5025 2220 c-3 -5 -1 -10 4 -10 6 0 11 5 11 10 0 6 -2 10 -4 10 -3 0
-8 -4 -11 -10z"/>
<path d="M5211 2214 c0 -11 3 -14 6 -6 3 7 2 16 -1 19 -3 4 -6 -2 -5 -13z"/>
<path d="M4453 2202 c1 -14 5 -18 11 -12 7 7 6 14 -1 21 -9 9 -12 7 -10 -9z"/>
<path d="M4627 2207 c-3 -8 1 -14 8 -14 7 0 11 6 8 14 -3 7 -6 13 -8 13 -2 0
-5 -6 -8 -13z"/>
<path d="M5435 2210 c3 -5 8 -10 11 -10 2 0 4 5 4 10 0 6 -5 10 -11 10 -5 0
-7 -4 -4 -10z"/>
<path d="M5535 2209 c-4 -6 -5 -12 -2 -15 2 -3 7 2 10 11 7 17 1 20 -8 4z"/>
<path d="M5744 2204 c-18 -14 -18 -15 4 -4 12 6 22 13 22 15 0 8 -5 6 -26 -11z"/>
<path d="M5052 2205 c4 -4 3 -16 -3 -26 -5 -11 -7 -19 -5 -19 3 0 10 9 16 19
7 15 7 22 -2 27 -7 4 -10 4 -6 -1z"/>
<path d="M5161 2194 c0 -11 3 -14 6 -6 3 7 2 16 -1 19 -3 4 -6 -2 -5 -13z"/>
<path d="M5230 2200 c0 -5 5 -10 11 -10 5 0 7 5 4 10 -3 6 -8 10 -11 10 -2 0
-4 -4 -4 -10z"/>
<path d="M5480 2200 c0 -5 5 -10 11 -10 5 0 7 5 4 10 -3 6 -8 10 -11 10 -2 0
-4 -4 -4 -10z"/>
<path d="M4685 2190 c3 -5 8 -10 11 -10 2 0 4 5 4 10 0 6 -5 10 -11 10 -5 0
-7 -4 -4 -10z"/>
<path d="M5779 2163 c-13 -16 -12 -17 4 -4 16 13 21 21 13 21 -2 0 -10 -8 -17
-17z"/>
<path d="M4880 1978 c-16 -14 -21 -22 -12 -25 6 -3 12 -9 12 -14 0 -6 -4 -7
-10 -4 -5 3 -10 -2 -10 -11 0 -14 3 -15 12 -6 15 15 32 16 23 2 -3 -5 1 -10
10 -10 10 0 15 -6 12 -13 -2 -6 6 -20 19 -30 21 -15 24 -16 24 -2 0 25 1 29
11 41 5 7 4 11 -6 11 -7 0 -13 -4 -12 -8 1 -4 -2 -6 -8 -5 -5 0 -9 4 -7 9 1 4
-5 7 -13 7 -8 0 -15 5 -15 10 0 6 15 8 40 4 32 -5 41 -3 46 10 8 20 6 21 -26
30 -20 6 -22 5 -10 -4 13 -9 12 -11 -5 -8 -11 1 -30 -3 -42 -10 -19 -11 -22
-10 -20 8 1 12 7 18 14 16 7 -3 10 1 6 10 -6 17 -3 18 -33 -8z m105 -28 c-3
-5 -16 -10 -28 -9 -21 0 -21 1 -2 9 28 12 37 12 30 0z"/>
<path d="M5439 1983 c-12 -16 -12 -17 2 -6 9 7 20 9 24 5 5 -4 5 -1 1 6 -9 16
-11 15 -27 -5z"/>
<path d="M4347 1983 c-2 -5 -5 -23 -5 -40 0 -23 4 -33 14 -33 10 0 13 -8 10
-27 -5 -27 -4 -27 9 -9 8 11 15 24 15 29 0 4 4 6 9 2 6 -3 15 4 21 15 7 13 7
20 0 20 -5 0 -10 -8 -11 -17 0 -11 -3 -13 -6 -5 -2 6 -9 10 -14 6 -14 -9 -10
13 6 29 8 8 11 17 8 20 -9 9 -33 -20 -33 -39 0 -25 -13 -8 -16 21 -2 16 1 23
8 19 7 -4 8 -2 4 4 -8 14 -13 15 -19 5z"/>
<path d="M5676 1959 c-16 -18 -33 -28 -42 -25 -8 3 -12 2 -9 -3 6 -11 -13 -25
-35 -26 -27 -1 -40 16 -34 44 5 23 4 24 -6 8 -11 -18 -12 -18 -26 0 -8 12 -13
13 -14 5 0 -7 -6 -10 -12 -7 -7 4 -6 1 2 -7 24 -21 21 -48 -5 -48 -19 0 -22
-4 -18 -22 3 -16 2 -19 -5 -10 -6 9 -9 3 -9 -20 0 -18 2 -25 4 -15 3 9 9 14
15 11 6 -4 8 -2 4 4 -3 6 -2 13 4 17 6 4 8 11 5 16 -4 5 -2 9 4 9 5 0 12 -6
14 -12 3 -8 6 -5 6 5 1 12 5 16 14 11 8 -5 8 -2 -2 9 -9 12 -10 17 -2 17 19 0
25 -31 12 -53 -11 -17 -11 -19 4 -14 9 4 14 3 10 -2 -8 -14 6 -41 22 -41 8 0
13 6 10 13 -2 6 -10 11 -17 9 -11 -3 -11 0 0 12 8 11 9 16 1 16 -6 0 -11 5
-11 11 0 7 7 8 18 4 9 -5 44 -9 76 -10 45 -2 63 -7 74 -21 13 -18 14 -18 8 3
-4 13 -2 24 6 29 22 14 37 13 31 -2 -3 -8 0 -14 5 -14 6 0 9 -11 6 -25 -2 -14
0 -25 6 -25 6 0 9 -4 6 -8 -2 -4 0 -14 5 -22 7 -12 8 -10 6 7 -2 12 -6 25 -10
29 -3 4 -2 15 3 24 7 13 6 20 -4 23 -14 5 -14 53 0 65 4 4 4 -1 1 -10 -3 -10
-2 -20 4 -24 7 -4 9 6 6 27 -3 21 -9 33 -17 31 -7 -2 -17 3 -21 10 -7 11 -9
11 -9 0 0 -7 -5 -10 -12 -6 -7 4 -8 3 -4 -5 4 -6 11 -9 16 -6 5 3 12 1 15 -5
4 -6 3 -10 -2 -9 -4 1 -15 1 -23 0 -12 -1 -10 -5 5 -17 20 -15 19 -16 -5 -12
-19 2 -24 -1 -22 -14 2 -10 -2 -18 -8 -18 -5 0 -10 5 -10 10 0 11 -44 9 -56
-3 -11 -11 -24 2 -24 24 0 11 4 18 10 14 5 -3 6 -13 3 -22 -6 -15 -5 -16 9 -3
9 8 14 18 11 22 -2 5 8 24 23 43 33 43 27 46 -10 4z"/>
<path d="M4519 1959 c-6 -9 -19 -15 -27 -12 -8 3 -18 0 -23 -8 -8 -12 -12 -11
-23 4 -15 19 -31 24 -19 5 10 -17 4 -51 -11 -60 -7 -5 -4 -8 7 -8 11 0 21 9
24 20 3 11 11 20 18 20 7 0 15 6 18 13 3 9 8 9 16 1 10 -9 6 -13 -13 -18 -14
-3 -26 -10 -26 -15 0 -5 9 -7 20 -4 25 7 27 -15 3 -33 -11 -8 -13 -13 -5 -14
6 0 12 -5 12 -11 0 -5 -4 -8 -8 -5 -5 3 -9 -1 -9 -9 0 -26 25 4 33 38 6 30 7
31 15 10 5 -13 14 -23 21 -22 9 0 9 2 2 5 -9 4 -9 11 0 29 6 14 14 25 19 25 4
0 -3 10 -15 22 -16 16 -18 23 -9 26 7 2 17 -1 21 -8 5 -8 9 -7 13 5 4 9 3 13
-3 10 -6 -3 -10 -2 -10 3 0 15 -27 9 -41 -9z m22 -36 c8 -10 9 -14 2 -10 -6 4
-14 3 -18 -3 -3 -5 -11 -10 -17 -10 -7 0 -7 4 1 13 6 8 8 17 4 20 -3 4 -2 7 4
7 6 0 17 -8 24 -17z"/>
<path d="M4670 1971 c0 -7 -5 -9 -12 -5 -7 4 -10 3 -5 -1 4 -5 18 -10 30 -12
12 -2 18 0 12 5 -5 4 -13 11 -17 16 -5 5 -8 4 -8 -3z"/>
<path d="M5122 1964 c-7 -8 -8 -14 -3 -14 10 0 25 19 20 25 -2 1 -10 -3 -17
-11z"/>
<path d="M5276 1963 c-5 -12 -9 -14 -18 -5 -17 17 -31 15 -25 -3 4 -8 2 -17
-3 -20 -9 -5 -14 7 -11 27 0 3 -7 5 -17 3 -9 -2 -20 -4 -23 -4 -9 -1 -7 -31 2
-31 14 0 4 -50 -11 -60 -12 -8 -12 -10 -1 -10 9 0 11 -8 7 -27 l-5 -28 13 29
c8 17 16 24 20 18 4 -7 20 -10 36 -8 18 2 31 -2 34 -11 3 -8 10 -12 15 -9 5 4
12 0 14 -6 4 -10 6 -10 6 0 1 6 6 12 12 12 5 0 8 -4 4 -9 -3 -5 -1 -12 4 -15
13 -8 21 7 12 22 -6 10 -30 18 -63 21 -4 1 -5 9 -1 19 5 15 4 14 -9 -2 -15
-19 -39 -15 -37 7 0 9 2 9 6 0 2 -7 9 -13 14 -13 5 0 3 11 -3 25 -6 14 -14 22
-17 17 -3 -5 -15 -6 -26 -1 -11 4 -14 8 -7 8 7 1 10 5 7 11 -3 6 1 7 10 4 9
-4 21 1 29 11 10 14 15 15 21 5 4 -7 2 -16 -5 -20 -15 -9 -3 -33 13 -27 7 2
16 -5 22 -16 5 -11 17 -21 25 -23 8 -1 20 -3 25 -4 20 -5 35 0 35 11 0 5 -4 7
-10 4 -5 -3 -10 -1 -10 4 0 15 15 14 29 -3 8 -10 9 -16 1 -21 -14 -9 -13 -28
2 -23 7 3 22 -7 35 -21 19 -22 22 -23 23 -8 0 10 -4 16 -9 12 -6 -3 -15 4 -21
16 -10 19 -7 26 29 59 39 37 54 59 29 44 -8 -5 -9 -2 -5 10 5 11 3 15 -5 10
-8 -5 -9 -2 -5 9 3 10 2 17 -3 17 -6 0 -10 -5 -10 -11 0 -6 -9 -8 -20 -4 -12
4 -28 1 -37 -7 -9 -7 -19 -13 -22 -13 -3 0 -5 -2 -4 -5 1 -3 5 -14 9 -25 7
-17 6 -18 -8 -5 -9 8 -14 18 -11 23 2 4 -1 7 -6 7 -6 0 -11 -6 -11 -13 0 -9
-13 -13 -39 -13 -49 1 -44 10 14 26 25 7 48 17 51 22 3 4 10 5 16 2 7 -4 8 -2
4 4 -5 9 -13 9 -26 2 -11 -6 -23 -9 -27 -8 -4 1 -18 -3 -30 -10 -24 -13 -31
-4 -12 15 7 7 7 13 1 17 -5 3 -13 -2 -16 -11z m138 -31 c-6 -4 -11 -15 -11
-24 0 -22 2 -22 21 -2 12 12 16 12 16 2 0 -7 -9 -21 -20 -31 -17 -15 -21 -15
-26 -3 -3 8 -3 19 0 25 4 5 1 13 -5 17 -8 4 -7 9 2 15 17 11 39 12 23 1z m-74
-57 c4 3 11 -2 14 -10 5 -13 2 -13 -25 0 -17 9 -27 21 -23 27 4 7 10 5 16 -6
5 -9 13 -14 18 -11z m-120 -6 c0 -11 -4 -17 -10 -14 -5 3 -10 13 -10 21 0 8 5
14 10 14 6 0 10 -9 10 -21z"/>
<path d="M4599 1965 c-1 -3 -2 -15 -2 -27 -1 -13 -6 -27 -11 -31 -7 -5 -5 -7
4 -4 9 2 15 16 16 35 1 27 -3 43 -7 27z"/>
<path d="M4730 1961 c-22 -6 -23 -8 -7 -14 24 -9 24 -9 31 8 3 8 4 15 3 14 -1
-1 -13 -4 -27 -8z"/>
<path d="M4780 1954 c0 -8 5 -12 10 -9 6 3 10 10 10 16 0 5 -4 9 -10 9 -5 0
-10 -7 -10 -16z"/>
<path d="M4796 1940 c-9 -16 -16 -32 -16 -36 1 -3 -2 -9 -6 -12 -4 -4 -4 5 0
20 4 16 1 30 -6 34 -6 4 -8 3 -5 -3 8 -13 -21 -26 -36 -16 -6 4 -24 7 -39 8
-26 1 -27 0 -11 -17 19 -21 6 -24 -21 -3 -10 7 -15 18 -11 24 3 6 2 11 -3 11
-13 0 -24 -29 -16 -42 3 -5 12 -7 19 -4 20 7 37 -18 23 -32 -15 -15 -19 -42
-7 -42 5 0 9 8 9 18 0 28 20 43 42 31 11 -6 22 -8 26 -5 3 3 0 6 -6 6 -7 0
-12 10 -12 21 0 20 1 20 23 6 12 -8 21 -21 19 -29 -3 -10 -1 -11 9 0 18 17 34
15 19 -3 -7 -8 -21 -15 -31 -15 -11 0 -19 -4 -19 -10 0 -5 6 -7 14 -4 7 3 30
-2 51 -10 46 -20 49 -20 33 -2 -7 8 -15 12 -18 11 -3 -2 -12 0 -19 4 -10 7
-10 12 0 30 17 26 29 27 29 4 0 -15 2 -15 9 -4 8 12 13 12 35 -3 14 -9 26 -14
26 -11 0 10 -29 36 -37 34 -4 -1 -12 7 -18 17 -30 55 -30 55 -49 24z m30 -27
c-10 -10 -19 5 -10 18 6 11 8 11 12 0 2 -7 1 -15 -2 -18z"/>
<path d="M5016 1959 c3 -5 9 -7 14 -4 5 3 11 1 15 -5 3 -5 -3 -10 -13 -10 -21
0 -49 -27 -38 -37 3 -4 12 1 19 9 6 9 21 18 31 20 11 1 21 9 24 16 2 7 0 12
-5 11 -4 -1 -10 0 -13 1 -19 7 -39 7 -34 -1z"/>
<path d="M5151 1963 c-1 -13 -38 -28 -58 -25 -7 2 -13 -4 -13 -13 0 -8 -3 -14
-7 -14 -5 1 -15 1 -23 0 -13 -1 -13 -3 -1 -10 12 -8 12 -13 3 -24 -10 -12 -9
-16 7 -20 10 -2 25 -1 32 4 7 4 21 4 30 -2 12 -6 19 -4 23 7 4 11 2 15 -8 11
-9 -4 -13 0 -11 11 1 9 8 16 14 15 6 -2 10 0 9 5 0 4 2 15 6 24 4 10 6 23 3
30 -4 9 -6 9 -6 1z m-33 -61 c-24 -30 -45 -37 -45 -16 0 7 4 11 9 8 7 -4 12 8
10 26 0 3 11 7 24 8 l25 2 -23 -28z"/>
<path d="M5583 1963 c-7 -2 -13 -16 -13 -30 0 -21 3 -23 14 -14 11 9 15 9 19
-1 4 -9 6 -7 6 4 1 9 -4 20 -10 24 -8 4 -7 9 2 15 15 9 2 11 -18 2z"/>
<path d="M5703 1944 c-7 -3 -9 -12 -6 -20 4 -11 9 -12 19 -3 25 20 17 35 -13
23z"/>
<path d="M5017 1900 c-3 -11 -1 -20 4 -20 5 0 9 9 9 20 0 11 -2 20 -4 20 -2 0
-6 -9 -9 -20z"/>
<path d="M4610 1885 c0 -8 -7 -15 -15 -15 -8 0 -15 -4 -15 -9 0 -22 36 -6 38
16 1 13 0 23 -3 23 -3 0 -5 -7 -5 -15z"/>
<path d="M4341 1874 c0 -11 3 -14 6 -6 3 7 2 16 -1 19 -3 4 -6 -2 -5 -13z"/>
<path d="M4565 1880 c-3 -6 1 -7 9 -4 18 7 21 14 7 14 -6 0 -13 -4 -16 -10z"/>
<path d="M4630 1876 c0 -9 5 -16 10 -16 6 0 10 4 10 9 0 6 -4 13 -10 16 -5 3
-10 -1 -10 -9z"/>
<path d="M4391 1873 c0 -6 -8 -19 -17 -27 -17 -17 -8 -21 14 -7 8 5 12 17 9
27 -3 11 -5 14 -6 7z"/>
<path d="M4426 1871 c-18 -7 -18 -8 -3 -14 9 -3 17 -2 17 4 0 6 5 7 10 4 6 -3
10 -1 10 4 0 12 -7 13 -34 2z"/>
<path d="M4699 1862 c6 -12 16 -24 22 -28 8 -4 8 -1 0 14 -6 12 -16 24 -22 28
-8 4 -8 1 0 -14z"/>
<path d="M5750 1864 c0 -10 5 -26 10 -34 8 -11 9 -7 4 15 -8 37 -14 45 -14 19z"/>
<path d="M4864 1849 c0 -10 4 -19 8 -19 4 0 8 6 8 14 0 8 -4 17 -8 20 -4 2 -8
-4 -8 -15z"/>
<path d="M4990 1859 c0 -5 5 -9 10 -9 6 0 10 -5 10 -11 0 -16 -23 -36 -37 -32
-6 2 -14 -1 -18 -6 -3 -6 0 -8 8 -5 8 3 17 -2 21 -12 6 -16 10 -15 31 9 26 27
33 43 15 32 -5 -3 -10 1 -10 10 0 10 5 14 13 9 9 -5 9 -4 0 6 -15 16 -43 22
-43 9z"/>
<path d="M4966 1845 c-3 -8 -1 -15 4 -15 6 0 10 7 10 15 0 8 -2 15 -4 15 -2 0
-6 -7 -10 -15z"/>
<path d="M5502 1853 c1 -5 -1 -18 -6 -30 -5 -15 -13 -20 -24 -17 -14 5 -15 4
-2 -4 9 -7 18 -7 26 -1 8 6 17 5 26 -5 9 -9 20 -11 28 -6 10 6 7 10 -13 15
-29 8 -37 25 -11 25 14 0 14 3 4 15 -13 16 -31 21 -28 8z"/>
<path d="M4622 1830 c-11 -19 1 -40 15 -26 4 3 1 6 -7 6 -10 0 -10 3 0 15 7 9
11 17 9 20 -3 2 -10 -4 -17 -15z"/>
<path d="M5428 1843 c7 -3 16 -2 19 1 4 3 -2 6 -13 5 -11 0 -14 -3 -6 -6z"/>
<path d="M5676 1835 c5 -12 9 -13 20 -4 12 10 13 8 8 -7 -5 -15 -4 -16 4 -4
13 18 6 30 -18 30 -13 0 -18 -5 -14 -15z"/>
<path d="M4451 1827 c-1 -11 -6 -15 -13 -11 -6 4 -8 3 -4 -4 3 -5 3 -12 -1
-15 -5 -2 -2 -2 6 0 19 5 42 -17 34 -31 -4 -6 1 -5 10 3 22 17 22 29 0 27 -10
0 -20 9 -24 24 -5 17 -7 19 -8 7z"/>
<path d="M4580 1828 c0 -9 7 -22 17 -29 15 -13 15 -12 3 11 -17 34 -20 36 -20
18z"/>
<path d="M4893 1825 c0 -8 4 -15 9 -15 4 0 8 4 8 9 0 6 -4 12 -8 15 -5 3 -9
-1 -9 -9z"/>
<path d="M5055 1831 c-8 -14 10 -22 30 -15 13 5 14 8 3 15 -17 11 -26 11 -33
0z"/>
<path d="M5121 1820 c-13 -11 -18 -20 -13 -20 6 0 14 5 17 10 4 6 11 8 16 5 5
-4 9 1 9 9 0 20 0 20 -29 -4z"/>
<path d="M5636 1828 c3 -5 10 -6 15 -3 13 9 11 12 -6 12 -8 0 -12 -4 -9 -9z"/>
<path d="M5244 1822 c3 -5 -1 -15 -9 -22 -8 -7 -15 -17 -15 -23 0 -6 7 -2 16
9 13 16 15 16 10 2 -6 -20 -5 -21 18 -12 23 9 20 31 -5 45 -12 6 -19 7 -15 1z
m26 -22 c0 -5 -2 -10 -4 -10 -3 0 -8 5 -11 10 -3 6 -1 10 4 10 6 0 11 -4 11
-10z"/>
<path d="M5600 1822 c0 -5 7 -9 15 -9 8 0 12 4 9 9 -3 4 -9 8 -15 8 -5 0 -9
-4 -9 -8z"/>
<path d="M4367 1805 c3 -8 9 -12 14 -9 12 7 11 11 -5 17 -10 4 -13 1 -9 -8z"/>
<path d="M5726 1805 c4 -8 8 -15 10 -15 2 0 4 7 4 15 0 8 -4 15 -10 15 -5 0
-7 -7 -4 -15z"/>
<path d="M4680 1795 c0 -13 35 -13 47 0 5 4 2 5 -4 1 -7 -4 -13 -3 -13 2 0 5
-7 9 -15 9 -8 0 -15 -6 -15 -12z"/>
<path d="M4520 1790 c0 -5 5 -10 11 -10 5 0 7 5 4 10 -3 6 -8 10 -11 10 -2 0
-4 -4 -4 -10z"/>
<path d="M4843 1792 c-7 -4 -9 -13 -4 -21 6 -10 10 -9 15 5 8 20 4 25 -11 16z"/>
<path d="M4870 1795 c0 -7 30 -13 34 -7 3 4 -4 9 -15 9 -10 1 -19 0 -19 -2z"/>
<path d="M4785 1780 c-3 -5 -1 -10 4 -10 6 0 11 5 11 10 0 6 -2 10 -4 10 -3 0
-8 -4 -11 -10z"/>
<path d="M4921 1776 c-9 -10 -9 -16 -1 -21 6 -4 14 -4 17 -1 4 3 1 6 -7 6 -10
0 -10 3 0 15 7 8 10 15 7 15 -2 0 -10 -6 -16 -14z"/>
<path d="M5570 1781 c0 -6 4 -13 10 -16 6 -3 7 1 4 9 -7 18 -14 21 -14 7z"/>
<path d="M5675 1781 c-3 -5 -2 -12 3 -15 5 -3 9 1 9 9 0 17 -3 19 -12 6z"/>
<path d="M4431 1764 c0 -11 3 -14 6 -6 3 7 2 16 -1 19 -3 4 -6 -2 -5 -13z"/>
<path d="M5155 1769 c-4 -6 -5 -12 -2 -15 2 -3 7 2 10 11 7 17 1 20 -8 4z"/>
<path d="M5466 1768 c3 -5 10 -6 15 -3 13 9 11 12 -6 12 -8 0 -12 -4 -9 -9z"/>
<path d="M5767 1769 c7 -7 15 -10 18 -7 3 3 -2 9 -12 12 -14 6 -15 5 -6 -5z"/>
<path d="M4738 1763 c0 -5 -2 -14 -2 -22 -2 -20 -46 -22 -47 -2 0 11 -2 12 -6
3 -3 -7 1 -19 7 -28 7 -8 10 -17 6 -21 -3 -3 -6 -1 -6 6 0 7 -5 9 -12 5 -6 -4
-9 -3 -5 2 3 5 -1 17 -8 27 -10 15 -15 15 -27 5 -22 -21 -41 -21 -34 -1 6 17
5 17 -8 0 -8 -10 -17 -18 -20 -18 -22 3 -28 -2 -11 -9 17 -7 17 -9 3 -9 -10
-1 -23 9 -29 21 -8 14 -14 18 -17 10 -2 -6 -8 -12 -13 -12 -6 0 -7 6 -3 13 6
9 5 9 -8 0 -8 -7 -18 -10 -21 -6 -4 3 -7 1 -7 -4 0 -6 6 -13 13 -16 9 -4 9 -7
-1 -18 -7 -8 -12 -9 -11 -4 6 26 -13 41 -44 38 -25 -4 -29 -2 -17 6 13 9 13
11 -2 11 -25 0 -31 -17 -11 -29 10 -6 13 -11 6 -11 -11 0 -28 18 -28 32 0 20
-15 17 -15 -3 0 -17 -3 -20 -9 -10 -5 7 -8 -44 -8 -123 0 -75 4 -139 8 -142 5
-3 9 -10 9 -15 0 -6 -4 -7 -10 -4 -17 11 -11 -7 8 -21 16 -13 16 -14 -3 -7
-18 6 -19 5 -5 -12 8 -10 10 -16 4 -12 -9 5 -12 -23 -13 -98 -2 -96 0 -104 16
-99 17 5 17 5 1 -6 -17 -10 -18 -50 -18 -595 l0 -585 735 0 735 0 0 715 c-1
552 -4 714 -13 708 -21 -13 -37 -12 -37 3 0 8 -10 14 -22 14 -17 0 -19 3 -10
9 8 4 13 10 13 12 0 2 2 14 5 26 8 29 34 39 34 13 0 -11 -7 -20 -15 -20 -29 0
-15 -25 15 -26 17 -1 30 2 30 7 0 5 -5 9 -10 9 -7 0 -7 6 -2 18 12 22 9 56 -7
75 -9 12 -9 17 0 23 8 5 10 3 4 -7 -5 -8 -4 -10 0 -6 12 10 15 38 4 31 -5 -3
-9 0 -9 5 0 6 5 11 10 11 6 0 10 5 10 11 0 5 -6 7 -12 3 -10 -6 -10 -4 0 7 6
7 12 26 12 41 0 27 -11 34 -47 29 -7 -1 -13 6 -13 15 0 16 -2 16 -16 -2 -8
-10 -13 -14 -10 -7 11 21 -13 24 -46 7 -31 -16 -32 -16 -19 0 12 14 12 16 -4
9 -14 -5 -17 -3 -12 10 9 24 0 21 -14 -4 -9 -17 -8 -20 2 -14 8 5 10 4 5 -4
-4 -6 -12 -9 -17 -5 -6 3 -20 -2 -32 -13 -16 -13 -18 -14 -9 -1 9 11 10 18 2
23 -5 3 -10 3 -10 -2 0 -4 -5 -1 -10 7 -9 13 -10 13 -11 0 -1 -8 -1 -19 1 -25
1 -5 -9 -1 -21 10 -22 20 -22 20 -16 0 6 -16 3 -16 -14 5 -11 14 -18 20 -15
13 4 -6 2 -15 -4 -18 -8 -5 -7 -12 2 -23 12 -15 11 -16 -4 -4 -10 8 -14 20
-11 29 5 12 3 14 -7 8 -10 -6 -12 -4 -6 10 5 15 4 16 -9 5 -9 -7 -13 -20 -10
-29 3 -9 -4 -5 -16 9 l-21 25 5 -33 c4 -26 3 -31 -7 -23 -7 6 -16 8 -19 4 -4
-3 -7 -1 -7 6 0 8 7 11 18 6 11 -4 14 -3 7 4 -16 15 -50 18 -47 4 1 -7 -5 -13
-14 -13 -9 0 -12 -5 -8 -12 5 -8 2 -9 -10 -5 -10 4 -23 7 -28 7 -6 0 -8 3 -5
7 4 3 -1 12 -11 20 -9 8 -11 11 -3 7 10 -5 12 -3 7 5 -6 9 -11 9 -22 0 -12
-10 -12 -13 2 -24 14 -10 15 -12 1 -12 -8 0 -20 11 -27 25 -6 14 -13 22 -16
19 -3 -3 0 -16 7 -29 6 -12 8 -20 4 -16 -4 4 -16 3 -26 -3 -13 -6 -19 -6 -20
1 -1 5 -3 15 -4 20 -1 6 -3 15 -4 20 -1 7 -8 7 -22 -1 -19 -10 -20 -9 -14 13
4 16 4 19 -3 9 -8 -11 -11 -10 -15 5 -4 13 -5 11 -4 -6 1 -14 9 -31 17 -38 13
-12 13 -13 -2 -8 -9 3 -19 0 -22 -7 -2 -7 -5 2 -5 18 -1 21 -4 26 -10 16 -6
-10 -13 -10 -28 -3 -15 8 -24 8 -33 -1 -10 -9 -11 -9 -6 0 4 8 -1 11 -14 10
-11 -1 -23 -10 -26 -20 -4 -12 -12 -16 -21 -12 -9 3 -25 -3 -36 -12 -19 -17
-20 -17 -9 3 14 26 -5 48 -28 34 -9 -6 -17 -5 -22 3 -6 9 -8 9 -8 0 0 -7 -5
-13 -11 -13 -5 0 -7 6 -3 13 6 10 4 10 -7 0 -18 -18 -29 -16 -29 4 0 15 -2 14
-14 -3 -11 -14 -11 -21 -3 -26 7 -5 0 -8 -15 -8 -19 0 -26 4 -22 14 3 8 1 17
-5 20 -6 4 -8 13 -4 21 3 8 2 15 -1 15 -3 0 -7 -3 -8 -7z m-88 -43 c-12 -8
-12 -10 -1 -10 8 0 12 -3 8 -6 -9 -9 -28 6 -22 17 4 5 12 9 18 9 7 0 6 -4 -3
-10z m1047 -14 c-9 -7 -17 -19 -17 -26 0 -7 -3 -11 -6 -7 -9 9 6 48 17 42 5
-4 9 -1 9 6 0 7 3 9 7 5 5 -4 0 -13 -10 -20z m-1073 -25 c-2 -2 -10 4 -18 12
-12 11 -13 16 -3 20 11 4 29 -23 21 -32z m406 23 c0 -2 -9 -4 -20 -4 -11 0
-20 4 -20 9 0 5 9 7 20 4 11 -3 20 -7 20 -9z m44 7 c4 -5 -3 -7 -14 -4 -23 6
-26 13 -6 13 8 0 17 -4 20 -9z m93 -4 c0 -7 -6 -18 -14 -25 -16 -15 -17 -8 -3
19 12 22 17 24 17 6z m-714 -11 c4 -10 1 -13 -8 -9 -8 3 -12 9 -9 14 7 12 11
11 17 -5z m285 -5 c3 -8 -1 -12 -9 -9 -7 2 -15 10 -17 17 -3 8 1 12 9 9 7 -2
15 -10 17 -17z m162 15 c0 -2 -8 -10 -17 -17 -16 -13 -17 -12 -4 4 13 16 21
21 21 13z m-500 -26 c0 -5 -2 -10 -4 -10 -3 0 -8 5 -11 10 -3 6 -1 10 4 10 6
0 11 -4 11 -10z m1139 -11 c-15 -9 -32 -2 -24 11 3 5 13 6 21 3 12 -4 13 -8 3
-14z m-282 -31 c0 -13 4 -31 8 -40 4 -10 3 -18 -2 -18 -5 0 -10 6 -11 13 0 6
-3 21 -5 32 -4 18 -1 35 7 35 1 0 2 -10 3 -22z m-407 -11 c11 -5 9 -6 -4 -4
-11 1 -21 9 -23 17 -3 10 -2 11 4 4 4 -6 15 -14 23 -17z m338 16 c-10 -2 -18
-9 -18 -15 0 -6 -3 -9 -6 -5 -10 10 6 27 24 26 15 -1 15 -2 0 -6z m-431 -20
c0 -10 -6 -24 -14 -31 -7 -7 -13 -10 -13 -5 0 5 5 14 12 21 9 9 9 12 -2 12
-13 0 -13 2 0 10 8 5 15 10 16 10 0 0 1 -8 1 -17z m-232 -3 c-3 -5 -1 -10 5
-10 6 0 9 -3 6 -8 -8 -13 22 -45 35 -36 8 4 10 3 5 -4 -4 -7 -13 -12 -21 -12
-7 0 -15 -5 -17 -10 -2 -6 -12 -1 -22 11 -14 17 -15 21 -3 16 23 -9 28 3 12
27 -18 24 -19 36 -4 36 5 0 7 -4 4 -10z m193 -8 c2 -7 -1 -12 -8 -12 -6 0 -9
4 -6 9 4 5 1 12 -4 14 -6 3 -5 4 2 3 6 -1 14 -8 16 -14z m877 8 c3 -6 -1 -7
-9 -4 -18 7 -21 14 -7 14 6 0 13 -4 16 -10z m-771 -8 c3 -5 -1 -9 -9 -9 -8 0
-12 4 -9 9 3 4 7 8 9 8 2 0 6 -4 9 -8z m343 -12 c-1 -4 3 -8 8 -8 6 0 9 5 7
12 -2 6 -1 8 3 4 4 -3 7 -10 7 -15 1 -4 8 -14 17 -21 14 -11 13 -12 -5 -3 -16
7 -23 6 -32 -9 -13 -22 2 -31 40 -24 19 4 20 3 4 -4 -17 -7 -17 -9 -4 -14 9
-4 20 -2 25 3 6 6 10 4 10 -5 0 -8 -5 -14 -11 -13 -6 1 -10 -7 -8 -18 2 -11
-1 -16 -5 -10 -4 6 -14 11 -21 13 -9 1 -8 -5 4 -23 9 -14 13 -25 9 -25 -4 0
-2 -6 4 -14 7 -8 8 -17 3 -20 -10 -6 -35 17 -27 25 2 3 -4 5 -15 5 -10 0 -16
-4 -13 -9 3 -5 0 -7 -8 -5 -8 3 -13 11 -11 17 3 16 -15 14 -21 -3 -3 -8 1 -20
9 -27 8 -7 13 -18 10 -26 -3 -7 0 -13 6 -13 6 0 9 -3 5 -6 -3 -4 -14 -3 -24 0
-14 6 -15 9 -4 16 12 7 11 11 -2 25 -16 15 -21 13 -18 -7 2 -16 -16 -7 -38 18
-27 31 -33 28 -22 -12 5 -16 10 -23 10 -16 1 7 6 10 11 7 12 -8 -16 -38 -38
-41 -11 -2 -12 0 -3 9 6 6 11 20 11 32 -1 18 -2 18 -11 3 -10 -17 -39 -14 -39
4 0 6 8 4 17 -3 15 -13 16 -11 10 10 -8 34 9 76 27 62 7 -6 17 -7 21 -3 5 4 5
2 1 -5 -3 -6 2 -16 11 -22 10 -6 14 -11 10 -11 -5 0 -5 -5 -2 -10 12 -19 34 9
29 36 l-4 24 36 -15 c42 -17 58 -19 49 -5 -3 6 -15 10 -26 10 -10 0 -19 5 -19
11 0 5 5 7 10 4 6 -3 10 -1 10 4 0 6 10 11 22 11 17 0 19 3 10 12 -9 9 -15 9
-24 0 -17 -17 -39 -15 -32 2 3 8 13 12 22 9 14 -4 15 -3 2 6 -11 7 -20 5 -34
-7 -18 -16 -18 -16 -8 4 6 12 9 24 6 27 -3 3 2 4 12 4 9 -1 19 4 22 12 3 9 0
12 -9 9 -9 -4 -14 2 -14 17 0 14 5 21 12 18 7 -3 11 -9 10 -13z m206 1 c-3
-10 -19 -32 -36 -47 -18 -16 -26 -22 -20 -15 10 12 10 18 0 30 -11 14 -10 14
6 2 16 -12 22 -9 18 12 -1 5 3 6 8 3 5 -3 11 3 14 14 3 11 7 20 10 20 3 0 3
-9 0 -19z m120 -4 c4 3 7 4 7 0 0 -18 -21 -14 -30 5 -10 21 -10 21 3 6 8 -10
17 -15 20 -11z m175 11 c-2 -7 5 -12 14 -10 9 1 19 -1 22 -6 7 -12 -26 -11
-41 0 -7 6 -10 14 -7 19 8 13 14 11 12 -3z m-678 -29 c15 -28 5 -23 -15 7 -9
15 -12 23 -6 20 6 -4 16 -16 21 -27z m143 10 c-6 -6 -19 -5 -34 1 -23 10 -23
10 4 5 21 -4 27 -2 21 6 -5 8 -3 9 5 4 8 -4 9 -11 4 -16z m-766 4 c-4 -3 -2
-12 5 -20 8 -11 7 -12 -6 -7 -9 3 -16 9 -16 13 0 9 11 21 18 21 3 0 2 -3 -1
-7z m143 -3 c0 -5 -5 -10 -11 -10 -5 0 -7 5 -4 10 3 6 8 10 11 10 2 0 4 -4 4
-10z m560 6 c0 -2 -7 -7 -16 -10 -8 -3 -12 -2 -9 4 6 10 25 14 25 6z m-630
-18 c0 -4 -9 -12 -20 -18 -19 -10 -21 -9 -19 6 0 4 -5 10 -11 14 -7 4 1 7 19
6 17 0 31 -4 31 -8z m265 2 c3 -5 2 -10 -4 -10 -5 0 -13 5 -16 10 -3 6 -2 10
4 10 5 0 13 -4 16 -10z m140 0 c-4 -6 -1 -18 7 -27 12 -15 11 -15 -9 -2 -26
16 -29 25 -10 32 18 8 19 8 12 -3z m680 0 c-3 -5 -12 -10 -18 -10 -7 0 -6 4 3
10 19 12 23 12 15 0z m-888 -15 c0 -8 -5 -12 -10 -8 -5 3 -7 -3 -5 -12 5 -30
27 -28 34 2 l7 28 13 -30 c12 -30 2 -61 -17 -50 -4 3 -3 -8 3 -25 7 -23 7 -35
-1 -43 -8 -8 -9 -5 -6 11 2 15 0 19 -11 15 -8 -3 -14 0 -14 7 0 6 5 8 10 5 12
-8 13 15 1 34 -6 9 -11 10 -15 2 -9 -13 -26 -5 -26 12 0 8 3 8 9 -2 5 -8 11
-9 15 -3 3 5 -1 15 -8 21 -11 10 -17 8 -25 -6 -9 -16 -10 -16 -11 -2 0 9 7 20
16 23 8 3 12 11 8 17 -4 7 -3 9 4 5 6 -3 13 -2 17 4 9 14 12 13 12 -5z m258
-7 c6 -4 2 -8 -7 -8 -10 0 -18 7 -18 17 0 9 3 12 8 7 4 -5 12 -12 17 -16z m40
-8 c-3 -4 -2 -10 2 -13 5 -2 2 -2 -4 -1 -7 2 -13 -5 -13 -16 0 -26 -15 -26
-17 -1 -1 11 5 22 14 25 14 6 14 8 -3 22 -18 14 -18 15 4 4 12 -6 20 -15 17
-20z m160 12 c-3 -3 -11 0 -18 7 -9 10 -8 11 6 5 10 -3 15 -9 12 -12z m378 4
c4 -11 1 -13 -10 -9 -12 5 -14 3 -8 -8 6 -11 5 -11 -5 -2 -10 9 -16 8 -27 -3
-8 -8 -20 -11 -26 -7 -8 5 -6 9 6 11 9 2 17 8 17 14 0 5 7 8 15 4 8 -3 15 -1
15 4 0 15 17 12 23 -4z m127 -2 c0 -2 -7 -4 -15 -4 -8 0 -15 4 -15 10 0 5 7 7
15 4 8 -4 15 -8 15 -10z m17 -6 c-3 -8 -6 -5 -6 6 -1 11 2 17 5 13 3 -3 4 -12
1 -19z m-524 -17 c9 6 17 9 18 7 0 -2 2 -15 3 -30 1 -22 -1 -25 -12 -15 -12
10 -13 6 -7 -23 4 -20 4 -31 -1 -27 -5 5 -10 13 -10 18 -1 5 -2 13 -3 18 0 5
-9 12 -18 14 -14 4 -13 5 4 6 12 0 25 5 28 11 4 6 -4 9 -17 7 -14 -1 -22 3
-20 11 1 6 -1 11 -5 11 -20 -3 -27 2 -13 11 11 7 18 4 25 -10 8 -14 14 -16 28
-9z m479 5 c7 4 8 2 4 -4 -8 -14 -46 2 -46 19 0 6 7 3 16 -5 8 -9 20 -13 26
-10z m168 11 c0 -8 -6 -14 -14 -14 -8 0 -12 6 -9 14 3 7 9 13 14 13 5 0 9 -6
9 -13z m-1260 -14 c0 3 12 -1 27 -8 18 -10 31 -11 37 -5 15 15 26 12 25 -7 0
-12 -2 -13 -6 -5 -4 10 -8 9 -18 -5 -12 -16 -15 -16 -32 -2 -19 17 -48 15 -37
-3 4 -6 0 -15 -7 -20 -10 -7 -7 -7 9 -3 13 4 22 2 22 -4 0 -6 -3 -11 -7 -12
-5 0 -21 -2 -38 -4 -23 -3 -26 -2 -15 6 12 8 10 9 -7 4 -15 -4 -23 -2 -23 6 0
7 -3 10 -6 7 -10 -10 19 -46 33 -41 9 4 9 -6 -3 -41 -9 -25 -18 -46 -20 -46
-8 0 1 45 11 52 5 4 2 10 -7 13 -9 4 -14 13 -11 21 3 8 -1 14 -11 14 -9 0 -15
-3 -15 -7 4 -24 -3 -25 -14 -3 -8 15 -11 35 -6 51 4 15 3 31 -2 36 -5 5 -1 9
10 9 15 0 17 -4 10 -17 -12 -23 -11 -39 2 -39 5 0 7 5 3 11 -4 8 1 9 17 3 43
-14 64 -10 64 11 0 11 -4 27 -10 35 -9 13 -8 13 8 1 9 -7 17 -11 17 -8z m882
-6 c-16 -17 -19 -26 -11 -34 7 -7 9 -19 6 -27 -7 -18 -27 -22 -27 -5 0 5 5 7
10 4 6 -3 10 1 10 11 0 13 -3 14 -15 4 -8 -7 -15 -19 -15 -28 0 -11 -5 -9 -20
8 -11 13 -20 28 -20 33 0 6 6 3 13 -7 11 -15 15 -13 42 23 17 22 34 41 39 41
5 0 0 -10 -12 -23z m141 8 c-3 -9 -8 -14 -10 -11 -3 3 -2 9 2 15 9 16 15 13 8
-4z m-797 -4 c-3 -5 1 -14 9 -21 8 -7 15 -9 15 -5 0 4 6 2 13 -4 8 -6 18 -7
22 -3 5 4 5 1 0 -7 -5 -9 -3 -12 6 -9 8 3 13 12 11 19 -2 8 0 11 4 7 4 -4 13
-3 21 3 8 8 13 8 13 1 0 -6 -6 -13 -12 -15 -10 -4 -9 -8 2 -16 10 -7 17 -6 22
2 4 7 8 8 8 2 0 -6 -5 -16 -12 -23 -9 -9 -9 -15 0 -24 9 -9 12 -8 12 5 0 9 4
17 9 17 5 0 7 -9 4 -21 -5 -19 -4 -20 16 -8 11 8 21 17 21 22 0 4 -3 6 -7 4
-5 -3 -14 1 -21 9 -11 12 -10 14 3 14 13 0 14 2 3 14 -7 8 -16 12 -20 10 -4
-2 -9 0 -13 5 -3 6 7 9 24 8 16 -1 27 -5 25 -9 -2 -3 3 -13 12 -22 9 -10 13
-24 9 -36 -4 -12 -2 -20 5 -20 6 0 8 5 5 10 -3 6 -1 10 5 10 6 0 9 4 6 8 -3 5
1 9 9 9 8 0 12 -4 9 -8 -2 -4 0 -10 5 -14 18 -11 0 -32 -27 -32 -15 0 -44 -2
-64 -5 -21 -3 -35 -1 -32 3 7 12 -7 11 -26 -1 -13 -8 -11 -11 8 -16 27 -8 29
-20 3 -20 -11 0 -17 4 -15 8 7 11 -27 23 -35 12 -8 -12 -41 -11 -38 1 1 5 11
8 22 7 17 -3 15 1 -9 22 -24 21 -32 24 -45 14 -11 -9 -11 -6 2 9 11 12 14 24
9 27 -6 3 -12 0 -15 -6 -2 -7 -8 -9 -13 -5 -5 4 -2 12 6 17 18 11 70 -18 70
-40 0 -12 2 -13 9 -1 6 9 15 11 27 6 18 -8 18 -8 2 -12 -10 -3 -18 -9 -18 -14
0 -6 3 -8 8 -6 4 2 15 7 26 11 15 5 16 9 6 21 -10 12 -10 15 1 15 10 1 8 4 -3
11 -12 7 -24 7 -37 0 -14 -8 -20 -7 -25 4 -3 8 -11 15 -18 15 -15 0 -40 35
-31 44 9 9 15 7 9 -3z m45 -5 c-1 -16 -31 -15 -31 1 0 8 7 13 16 11 8 -2 15
-7 15 -12z m50 1 c-7 -7 -14 -8 -21 -1 -6 6 -2 10 12 11 16 2 18 -1 9 -10z
m204 3 c4 -6 10 -8 15 -5 5 3 12 1 15 -5 4 -6 1 -9 -7 -8 -7 2 -13 -6 -13 -16
0 -11 -6 -21 -13 -22 -7 -1 -8 0 -3 2 17 9 0 34 -23 35 -12 0 -16 3 -7 6 11 5
11 7 0 14 -10 6 -8 9 8 9 12 0 25 -5 28 -10z m649 -2 c-3 -4 0 -8 5 -8 6 0 11
-5 11 -11 0 -8 -5 -8 -15 1 -13 10 -15 9 -16 -11 0 -18 -2 -20 -7 -8 -5 11
-13 14 -26 9 -16 -5 -17 -7 -4 -12 9 -4 15 -18 15 -35 0 -15 -2 -22 -4 -15 -3
6 -9 10 -14 6 -5 -3 -9 -4 -9 -2 -1 2 -3 20 -6 41 -5 35 -4 38 14 33 12 -4 22
-1 25 7 3 8 12 14 21 14 8 0 13 -4 10 -9z m103 -18 c-14 -11 -29 -20 -34 -20
-16 0 -13 -63 5 -76 9 -7 12 -14 7 -14 -18 0 -35 23 -35 48 0 13 -3 21 -8 18
-4 -2 -16 3 -27 11 -16 13 -17 15 -2 10 9 -4 17 -2 17 4 0 6 7 9 15 5 9 -3 15
0 15 9 0 8 5 15 11 15 5 0 7 -4 4 -10 -3 -5 -2 -10 3 -10 6 0 12 7 16 15 3 8
13 15 22 15 13 0 11 -5 -9 -20z m-1312 -8 c-3 -3 -11 0 -18 7 -9 10 -8 11 6 5
10 -3 15 -9 12 -12z m992 3 c0 -8 -4 -15 -9 -15 -10 0 -11 14 -1 23 9 10 10 9
10 -8z m93 11 c0 -2 -8 -10 -17 -17 -16 -13 -17 -12 -4 4 13 16 21 21 21 13z
m-134 -19 c-18 -13 -18 -14 -2 -20 10 -4 23 -4 29 0 7 4 6 -1 -2 -10 -12 -15
-11 -17 11 -17 13 0 29 -5 36 -12 9 -9 12 -9 12 0 0 7 -5 12 -11 12 -6 0 -9 6
-6 13 2 6 0 21 -5 32 -9 19 -8 19 5 2 11 -14 16 -15 21 -5 3 7 3 2 -1 -12 -5
-21 -4 -23 9 -12 16 13 48 7 48 -9 0 -4 8 -5 17 -2 15 6 16 5 3 -9 -8 -9 -18
-14 -22 -11 -4 2 -5 -3 -2 -11 3 -9 11 -13 18 -9 6 4 4 -2 -4 -12 -14 -17 -13
-18 2 -12 19 7 27 -2 33 -34 3 -17 2 -19 -10 -9 -8 7 -12 17 -8 23 4 6 0 8
-10 4 -9 -3 -18 0 -21 9 -3 8 -12 14 -21 14 -19 0 -19 10 1 38 16 23 9 28 -15
13 -7 -5 -11 -13 -7 -19 10 -16 -21 -22 -41 -7 -10 8 -22 14 -28 14 -5 0 -2
-6 8 -13 14 -11 15 -16 5 -22 -22 -14 -48 -11 -48 4 0 9 -3 12 -7 9 -7 -8 -33
11 -33 24 0 17 28 9 43 -13 14 -20 16 -20 16 -5 1 10 -8 27 -19 39 -15 16 -17
25 -9 35 6 7 16 13 22 13 6 0 3 -6 -7 -13z m-877 -14 c5 -10 9 -22 9 -28 0 -5
6 -11 13 -14 8 -2 10 2 6 13 -4 10 -1 16 9 16 8 0 12 5 9 10 -3 6 1 10 10 10
8 0 18 -7 21 -15 4 -8 11 -12 17 -8 5 3 7 1 4 -4 -4 -6 -18 -8 -32 -5 -15 2
-25 0 -25 -7 0 -7 6 -11 13 -9 20 4 67 -12 67 -23 0 -6 -7 -6 -20 1 -14 7 -20
7 -20 0 0 -5 -5 -10 -11 -10 -6 0 -9 7 -5 15 4 13 2 13 -14 5 -26 -14 -51 -13
-47 3 1 6 -3 11 -9 10 -7 -1 -10 6 -7 18 4 12 0 25 -8 30 -9 6 -10 9 -2 9 7 0
17 -8 22 -17z m746 -31 c-2 -9 -4 -20 -4 -24 -1 -5 -6 -8 -12 -8 -6 0 -9 7 -6
14 4 10 1 13 -9 9 -14 -5 -14 -3 -3 15 14 23 39 19 34 -6z m400 -8 c0 -10 -7
-19 -15 -19 -25 0 -40 -18 -27 -33 9 -11 6 -13 -13 -10 -13 1 -24 11 -26 21
-2 15 8 22 29 18 4 -1 12 11 17 25 11 29 35 28 35 -2z m-675 6 c0 8 3 11 6 8
3 -4 0 -17 -7 -30 -7 -12 -12 -29 -11 -35 2 -7 -3 -10 -12 -7 -9 3 -21 -5 -31
-20 -10 -14 -25 -25 -34 -25 -14 1 -13 2 2 6 16 4 21 14 18 38 0 6 9 15 22 20
14 6 22 18 21 32 0 18 2 20 13 12 10 -9 13 -8 13 1z m-461 -38 c23 2 43 -2 50
-10 9 -9 17 -10 25 -3 7 6 22 8 34 4 22 -5 22 -6 -4 -19 -19 -10 -30 -11 -39
-4 -10 8 -15 8 -21 -1 -5 -9 -10 -7 -20 5 -11 16 -13 16 -24 -1 -9 -14 -10
-14 -6 -2 6 20 -33 31 -58 17 -23 -13 -9 -30 17 -23 20 5 20 5 4 -5 -29 -19
-49 4 -34 38 16 37 31 46 35 21 3 -18 10 -20 41 -17z m803 20 c7 2 12 -5 11
-15 0 -12 4 -16 13 -13 7 3 16 1 19 -4 6 -10 -34 -35 -42 -26 -3 3 -12 -2 -19
-12 -12 -16 -13 -16 -10 3 2 11 10 19 19 19 9 -1 15 6 14 17 -1 11 -7 19 -15
19 -7 0 -11 -4 -8 -9 3 -5 -1 -11 -9 -14 -9 -4 -12 -1 -8 9 4 10 0 12 -11 8
-9 -3 -16 -14 -16 -23 0 -10 -7 -18 -15 -18 -8 0 -15 9 -15 19 0 10 6 18 14
18 8 0 18 9 21 20 5 16 10 18 25 10 11 -6 25 -9 32 -8z m-626 -17 c-8 -8 -21
-15 -28 -15 -8 1 -6 6 6 15 26 20 42 19 22 0z m979 -4 c-3 -6 10 -13 28 -16
19 -4 34 -13 34 -21 0 -10 -4 -11 -14 -3 -13 11 -18 5 -13 -16 1 -5 -13 4 -31
20 -18 17 -29 25 -26 19 8 -14 -36 -38 -55 -31 -7 3 -3 6 10 6 20 1 24 6 21
28 0 4 8 10 18 14 26 11 35 10 28 0z m-1278 -16 c0 -8 -4 -15 -8 -15 -11 0
-20 16 -12 24 11 11 20 7 20 -9z m787 -24 c-4 -3 -9 0 -11 7 -3 6 -9 10 -14 6
-11 -6 -12 9 -2 20 4 4 13 -1 20 -10 7 -10 10 -20 7 -23z m283 22 c8 -10 11
-12 8 -4 -5 9 1 8 19 -4 31 -21 31 -21 6 -35 -16 -9 -18 -8 -14 5 8 20 -15 19
-39 -2 -11 -10 -17 -13 -14 -6 4 6 3 14 -3 18 -17 10 -11 25 7 18 12 -5 15 -2
10 10 -8 22 2 22 20 0z m-587 -3 c0 -5 -5 -10 -11 -10 -5 0 -8 -4 -4 -9 3 -5
2 -12 -3 -15 -4 -2 -9 6 -10 20 -1 15 3 24 13 24 8 0 15 -4 15 -10z m525 -10
c3 -6 -4 -10 -17 -10 -18 0 -20 2 -8 10 19 12 18 12 25 0z m-745 -10 c8 -5 11
-10 5 -10 -5 0 -17 5 -25 10 -8 5 -10 10 -5 10 6 0 17 -5 25 -10z m80 -6 c0
-8 -19 -13 -24 -6 -3 5 1 9 9 9 8 0 15 -2 15 -3z m364 -10 c3 -8 2 -12 -4 -9
-6 3 -10 10 -10 16 0 14 7 11 14 -7z m561 -3 c-3 -6 -11 -8 -17 -5 -6 4 -5 9
3 15 16 10 23 4 14 -10z m-385 5 c0 -3 -4 -8 -10 -11 -5 -3 -10 -1 -10 4 0 6
5 11 10 11 6 0 10 -2 10 -4z m503 -13 c-7 -2 -19 -2 -25 0 -7 3 -2 5 12 5 14
0 19 -2 13 -5z m-1008 -213 c-3 -5 -12 -10 -18 -10 -7 0 -6 4 3 10 19 12 23
12 15 0z m335 6 c0 -2 -8 -10 -17 -17 -16 -13 -17 -12 -4 4 13 16 21 21 21 13z"/>
<path d="M4655 1510 c4 -6 11 -8 16 -5 14 9 11 15 -7 15 -8 0 -12 -5 -9 -10z"/>
<path d="M4370 1469 c0 -5 5 -7 10 -4 6 3 10 8 10 11 0 2 -4 4 -10 4 -5 0 -10
-5 -10 -11z"/>
<path d="M4930 1439 c0 -5 5 -7 10 -4 6 3 10 8 10 11 0 2 -4 4 -10 4 -5 0 -10
-5 -10 -11z"/>
<path d="M5686 1492 c-3 -5 1 -9 9 -9 8 0 12 4 9 9 -3 4 -7 8 -9 8 -2 0 -6 -4
-9 -8z"/>
<path d="M5640 1455 c0 -8 2 -15 4 -15 2 0 6 7 10 15 3 8 1 15 -4 15 -6 0 -10
-7 -10 -15z"/>
<path d="M5695 1390 c3 -5 8 -10 11 -10 2 0 4 5 4 10 0 6 -5 10 -11 10 -5 0
-7 -4 -4 -10z"/>
<path d="M5284 1734 c3 -9 6 -18 6 -20 0 -2 9 -4 20 -4 22 0 27 15 8 26 -7 5
-9 2 -4 -7 4 -8 1 -6 -7 4 -18 21 -31 22 -23 1z"/>
<path d="M4940 1726 c0 -2 7 -7 16 -10 8 -3 12 -2 9 4 -6 10 -25 14 -25 6z"/>
<path d="M5195 1710 c3 -5 8 -10 11 -10 2 0 4 5 4 10 0 6 -5 10 -11 10 -5 0
-7 -4 -4 -10z"/>
</g>
</svg>
